<svg width="127" height="119" fill="none" xmlns="http://www.w3.org/2000/svg"><path fill-rule="evenodd" clip-rule="evenodd" d="M59.96 10.364c13.074-4.011 27.943-7.387 39.465-.021 11.751 7.512 14.975 22.58 17.33 36.328 2.324 13.574 3.072 27.899-4.342 39.505-7.651 11.977-20.935 18.524-34.78 21.74-14.686 3.412-30.476 4.24-43.364-3.587-13.556-8.233-24.963-22.27-25.323-38.127-.334-14.737 13.713-24.473 23.655-35.356 7.988-8.743 16.038-17.008 27.36-20.482z" fill="#F3FAFF"/><g clip-path="url(#clip0)" fill="#161522"><path d="M79.759 72.974a1.36 1.36 0 00-1.888.37 25.92 25.92 0 01-2.33 2.972 28.886 28.886 0 00-7.427-4.357c.107-.473.211-.952.307-1.443a1.36 1.36 0 00-2.67-.524c-.07.36-.145.712-.223 1.062a31.499 31.499 0 00-9.052-1.314c-3.113 0-6.165.453-9.053 1.321-.725-3.287-1.148-6.916-1.23-10.701h15.214a1.36 1.36 0 100-2.721H46.194c.087-4.077.57-7.974 1.402-11.456a31.434 31.434 0 009.543 1.465c2.844 0 5.636-.379 8.3-1.105.108.473.212.955.309 1.447a1.36 1.36 0 002.67-.525 48.31 48.31 0 00-.38-1.758 29.154 29.154 0 007.454-4.077c.834.912 1.61 1.89 2.315 2.93a1.36 1.36 0 002.252-1.528 28.473 28.473 0 00-23.582-12.51C40.775 30.523 28 43.297 28 59s12.775 28.477 28.477 28.477a28.457 28.457 0 0023.652-12.614 1.36 1.36 0 00-.37-1.888zm-6.165 5.27a25.715 25.715 0 01-10.708 5.702c1.832-2.206 3.39-5.381 4.541-9.328a26.155 26.155 0 016.167 3.626zM56.477 72.46c2.897 0 5.72.424 8.383 1.235-1.944 6.745-5.132 11.06-8.383 11.06-2.5 0-5.049-2.595-6.994-7.12a33.628 33.628 0 01-1.393-3.934 28.73 28.73 0 018.386-1.24zm-9.494 6.25c.907 2.11 1.945 3.865 3.081 5.237a25.721 25.721 0 01-10.694-5.712 26.228 26.228 0 016.158-3.61 36.08 36.08 0 001.455 4.086zM57.14 44.928a28.7 28.7 0 01-8.824-1.371c.35-1.125.739-2.194 1.168-3.193 1.945-4.524 4.494-7.12 6.994-7.12 3.187 0 6.315 4.15 8.268 10.67a28.811 28.811 0 01-7.606 1.014zM45.767 42.59a26.114 26.114 0 01-5.71-3.417 25.705 25.705 0 0110.007-5.12c-1.136 1.372-2.174 3.127-3.08 5.236a35.148 35.148 0 00-1.217 3.301zm17.12-8.535a25.742 25.742 0 0110.642 5.644 26.444 26.444 0 01-6.194 3.367c-1.142-3.8-2.665-6.864-4.448-9.01zM38.035 41.04a28.831 28.831 0 006.994 4.195c-.928 3.772-1.465 7.996-1.557 12.404H30.757c.337-6.44 3.05-12.26 7.278-16.599zm-7.278 19.32h12.715c.085 4.099.554 8.04 1.366 11.606a28.948 28.948 0 00-7.416 4.344 25.657 25.657 0 01-6.665-15.95z"/><path d="M77.825 51.231c-4.525 0-8.206 3.682-8.206 8.206a1.36 1.36 0 102.721 0 5.49 5.49 0 015.485-5.485 1.36 1.36 0 100-2.72z"/><path d="M97.602 73.841l-6.038-6.038a1.361 1.361 0 00-1.924 1.925l5.076 5.075-1.525 1.524-7.513-7.513a12.153 12.153 0 004.38-9.377c0-3.268-1.273-6.34-3.583-8.65a12.152 12.152 0 00-8.65-3.583 12.15 12.15 0 00-8.65 3.583 12.152 12.152 0 00-3.582 8.65c0 3.267 1.272 6.339 3.582 8.65a12.152 12.152 0 008.65 3.582c1.957 0 3.842-.46 5.537-1.322l8.867 8.867a1.357 1.357 0 001.925 0l3.448-3.449a1.36 1.36 0 000-1.924zm-26.503-7.679a9.449 9.449 0 01-2.785-6.725c0-2.54.989-4.93 2.785-6.726a9.449 9.449 0 016.726-2.785 9.45 9.45 0 016.725 2.785 9.449 9.449 0 012.786 6.726 9.45 9.45 0 01-2.786 6.725 9.449 9.449 0 01-6.725 2.786c-2.54 0-4.93-.99-6.726-2.786z"/></g><defs><clipPath id="clip0"><path fill="#fff" transform="translate(28 24)" d="M0 0h70v70H0z"/></clipPath></defs></svg>