<svg width="132" height="131" fill="none" xmlns="http://www.w3.org/2000/svg"><path fill-rule="evenodd" clip-rule="evenodd" d="M121.189 54.295c2.182 14.03-2.172 27.906-10.039 39.725-7.916 11.893-19.092 21.234-32.921 24.818-14.731 3.817-30.806 3.21-43.632-4.979C21.505 105.5 12.422 91.285 10.87 75.83 9.426 61.44 18.49 49.057 26.912 37.3c8.076-11.276 16.902-22.548 30.293-26.16 14.255-3.844 29.847-1.617 42.088 6.639 12.232 8.25 19.629 21.938 21.896 36.517z" fill="#F3FAFF"/><g clip-path="url(#clip0)" fill="#161522"><path d="M99.603 50.297L85.355 36.048a4.745 4.745 0 00-3.377-1.399 4.744 4.744 0 00-3.377 1.4l-3.348 3.348a4.74 4.74 0 00-1.113 1.766l-15.67-2.805h-.003c-7.045-1.399-13.923 3.18-15.344 10.226l-.722 3.585c-.798 3.958 1.773 7.828 5.732 8.626 3.958.797 7.828-1.773 8.626-5.732l.442-2.192 7.025.614 18.348 18.348 3.325 3.325a1.73 1.73 0 010 2.443 1.729 1.729 0 01-2.442 0l-8.907-8.908a1.589 1.589 0 00-2.247 2.247l8.907 8.908c.327.326.506.76.506 1.22a1.729 1.729 0 01-2.948 1.22l-8.907-8.906a1.589 1.589 0 00-2.247 2.247l8.907 8.908a1.729 1.729 0 01-1.22 2.948c-.462 0-.896-.18-1.222-.506l-8.907-8.908a1.589 1.589 0 00-2.247 2.247l8.907 8.908a1.73 1.73 0 010 2.442 1.73 1.73 0 01-2.442 0L37.874 60.152l-4.162-4.162a1.589 1.589 0 10-2.246 2.247l4.162 4.162 4.529 4.529-2.497 2.497a4.3 4.3 0 00-1.268 3.06 4.3 4.3 0 001.268 3.061l.815.815a4.295 4.295 0 002.628 1.246 4.295 4.295 0 001.246 2.628l.815.815a4.307 4.307 0 002.628 1.243 4.294 4.294 0 001.247 2.631l.814.815a4.296 4.296 0 002.629 1.247 4.296 4.296 0 001.246 2.628l.815.815a4.315 4.315 0 003.06 1.265 4.315 4.315 0 003.061-1.265l2.497-2.497 5.983 5.983a4.872 4.872 0 003.468 1.436c1.31 0 2.542-.51 3.468-1.436a4.865 4.865 0 001.427-3.263 4.88 4.88 0 004.687-4.691 4.88 4.88 0 003.264-1.424 4.88 4.88 0 001.425-3.265 4.88 4.88 0 003.265-1.424 4.91 4.91 0 000-6.936l-2.202-2.202 8.056-8.056 5.602-5.602a4.781 4.781 0 000-6.755zM39.907 73.3a1.152 1.152 0 010-1.628l2.341-2.34 2.443 2.442-2.342 2.341a1.152 1.152 0 01-1.627 0l-.815-.815zm4.69 4.69a1.152 1.152 0 010-1.628l2.34-2.341 2.443 2.442-2.341 2.341a1.152 1.152 0 01-1.628 0l-.815-.814zm4.688 4.689a1.143 1.143 0 01-.337-.814c0-.307.12-.596.337-.814l2.342-2.341 2.442 2.442-2.342 2.342a1.152 1.152 0 01-1.627 0l-.815-.815zm7.132 5.504a1.152 1.152 0 01-1.628 0l-.815-.815a1.152 1.152 0 010-1.628l2.342-2.341 2.442 2.443-2.341 2.34zm27.282-19.72L66.065 50.83a1.586 1.586 0 00-.985-.459l-9.017-.788a1.59 1.59 0 00-1.696 1.269l-.722 3.584a4.15 4.15 0 01-4.884 3.245 4.118 4.118 0 01-2.633-1.77 4.119 4.119 0 01-.611-3.113l.723-3.585c1.076-5.34 6.295-8.81 11.638-7.733l.033.007 15.44 2.764 1.9 1.9 15.38 15.38-6.932 6.933zm13.657-13.657l-4.478 4.479-15.38-15.38a1.588 1.588 0 01-.468-1.13c0-.428.166-.829.468-1.13l3.349-3.35a1.588 1.588 0 011.13-.468c.427 0 .828.167 1.13.469l14.25 14.249c.301.302.468.703.468 1.13 0 .427-.167.829-.469 1.13z"/><path d="M93.51 55.894a1.589 1.589 0 100-3.177 1.589 1.589 0 000 3.177z"/></g><defs><clipPath id="clip0"><path fill="#fff" transform="translate(31 30)" d="M0 0h70v70H0z"/></clipPath></defs></svg>