<svg width="114" height="112" fill="none" xmlns="http://www.w3.org/2000/svg"><path fill-rule="evenodd" clip-rule="evenodd" d="M57.564 109.111c-14.073-1.666-24.578-11.93-34.353-22.19C13.254 76.466 2.123 65.396 2.173 50.96c.051-14.745 9.809-27.591 21.292-36.84C34.147 5.515 47.822 2.182 61.503 3.17c13.169.95 25.305 6.702 34.493 16.184 9.406 9.707 15.16 22.177 15.763 35.68.66 14.79-1.864 30.445-12.344 40.902-10.763 10.739-26.753 14.96-41.851 13.174z" fill="#F3FAFF"/><g clip-path="url(#clip0)" fill="#161522"><path d="M42.288 91.249h29.424c2.757 0 5-2.244 5-5.001v-60.5a5.006 5.006 0 00-5-4.999H42.288c-2.756 0-5 2.243-5 5v60.499a5.007 5.007 0 005 5.001zm-2.642-65.5a2.647 2.647 0 012.642-2.643h29.424a2.647 2.647 0 012.642 2.643v60.499a2.646 2.646 0 01-2.642 2.644H42.288a2.646 2.646 0 01-2.642-2.644v-60.5z" stroke="#161522" stroke-width=".5"/><path d="M42.414 30.89h0c0-.546.441-.989.988-.989h27.196a.99.99 0 01.989.989v49.707a.989.989 0 01-.989.989H43.402a.989.989 0 01-.988-.989V30.89zm-.715 52.124h30.603c.395 0 .714-.32.714-.714V29.187a.714.714 0 00-.714-.714H41.7a.715.715 0 00-.714.714V82.3c0 .395.32.714.714.714z" stroke="#161522" stroke-width=".5"/><path d="M54.389 25.895h5.224a.465.465 0 000-.928h-5.224a.465.465 0 000 .928zm5.286 57.931h-5.35a1.995 1.995 0 00-1.992 1.991v.32c0 1.098.895 1.992 1.992 1.992h5.35a1.995 1.995 0 001.992-1.992v-.32a1.994 1.994 0 00-1.992-1.99zm1.064 2.31c0 .588-.477 1.064-1.063 1.064h-5.35a1.065 1.065 0 01-1.063-1.063v-.32c0-.585.478-1.062 1.064-1.062h5.349c.587 0 1.063.478 1.063 1.062v.32z"/><path d="M46.237 51.317a.66.66 0 00-.087.58v.002l.375 1.325.389-2.11c-.242-.061-.515-.015-.677.203zm0 0l.2.15-.2-.15s0 0 0 0zm19.505 7.463h.002c.013.003.02.008.023.01a.016.016 0 01.006.006.022.022 0 01.002.01c0 .003 0 .008-.004.017l-.001.003a9.492 9.492 0 01-8.771 5.83 9.475 9.475 0 01-9.416-8.082h0v-.002a.606.606 0 00-.2-.359h0l-.003-.002c-.124-.106-.298-.124-.42-.115a.619.619 0 00-.413.18l.185.169-.184-.17a.572.572 0 00-.144.482l.247-.04-.248.038a10.661 10.661 0 0010.594 9.094 10.68 10.68 0 009.9-6.628c.032-.076.12-.118.187-.102a.769.769 0 00.198.026.59.59 0 00.48-.227l.002-.002a.66.66 0 00.086-.58v-.001l-.375-1.328c-.064-.228-.223-.407-.444-.464-.222-.057-.448.024-.615.197 0 0 0 0 0 0l-.962.987s0 0 0 0c-.157.162-.253.39-.188.622.064.236.263.375.476.43zm-.235-.498c.033.124.14.215.298.256a.276.276 0 01.195.385l-.493-.64z" stroke="#161522" stroke-width=".5"/></g><defs><clipPath id="clip0"><path fill="#fff" transform="translate(22 20.999)" d="M0 0h70v70H0z"/></clipPath></defs></svg>