<svg width="200" height="200" fill="none" xmlns="http://www.w3.org/2000/svg"><path d="M28.179 6.25a21.785 21.785 0 0115.508 6.423l10.009 10.01 10.01-10.01a21.93 21.93 0 0137.435 15.508c0 .054-.003.108-.004.163.121.046.238.1.352.16l75 40.625a3.123 3.123 0 011.636 2.746v118.75A3.125 3.125 0 01175 193.75H25a3.125 3.125 0 01-3.125-3.125V68.75a3.125 3.125 0 011.727-2.795l7.56-3.78-18.49-18.49A21.929 21.929 0 0128.18 6.25zm7.594 60.608l-7.648 3.823V187.5h143.75V73.736l-71.771-38.875a21.82 21.82 0 01-5.386 8.824l-34.44 34.44h8.472a3.125 3.125 0 110 6.25H37.5a3.125 3.125 0 010-6.25h9.613L35.82 66.831c-.017.008-.031.019-.047.026zm-18.68-27.593l36.603 36.602 36.601-36.602a15.679 15.679 0 00-22.172-22.173l-12.22 12.221a3.124 3.124 0 01-4.42 0l-12.22-12.22A15.679 15.679 0 0017.09 39.264h.001z" fill="#FDFDFD"/><path d="M41.66 37.5h3.125v-3.125a3.125 3.125 0 013.125-3.125h12.5a3.125 3.125 0 013.125 3.125V37.5h3.125a3.125 3.125 0 013.125 3.125v12.5a3.125 3.125 0 01-3.125 3.125h-3.125v3.125A3.125 3.125 0 0160.41 62.5h-12.5a3.125 3.125 0 01-3.125-3.125V56.25H41.66a3.125 3.125 0 01-3.125-3.125v-12.5A3.125 3.125 0 0141.66 37.5zM44.785 50h3.125a3.125 3.125 0 013.125 3.125v3.125h6.25v-3.125A3.125 3.125 0 0160.41 50h3.125v-6.25H60.41a3.125 3.125 0 01-3.125-3.125V37.5h-6.25v3.125a3.125 3.125 0 01-3.125 3.125h-3.125V50zM37.5 90.624a3.125 3.125 0 013.125 3.125v81.249h20.43a12.463 12.463 0 012.277-15.364 10.933 10.933 0 01.129-11.064l11.921-19.869a14.135 14.135 0 0112.061-6.828h15.682v-14.062a14.01 14.01 0 014.323-10.13 15.63 15.63 0 1118.047-1.206 14.048 14.048 0 015.755 11.336v21.875c0 1.092-.127 2.18-.378 3.242a24.98 24.98 0 0115.615 18.918 24.964 24.964 0 01-8.103 23.152h20.991V80.014l-57.984-30.372a3.123 3.123 0 01-1.358-4.24 3.12 3.12 0 013.082-1.659 3.14 3.14 0 011.176.362l59.659 31.25a3.126 3.126 0 011.675 2.768v100a3.125 3.125 0 01-3.125 3.125h-125a3.125 3.125 0 01-3.125-3.125V93.749a3.125 3.125 0 013.125-3.125zm68.474 55.706a18.62 18.62 0 00-2.779 8.356h11.135l-8.356-8.356zm12.776 3.936v-12.502a18.664 18.664 0 00-8.619 3.883l8.619 8.619zm6.25-12.502v12.502l8.619-8.619a18.664 18.664 0 00-8.619-3.883zm6.794 34.386L125 165.356v9.377a18.616 18.616 0 006.794-2.583zm-13.044-6.794l-6.794 6.794a18.616 18.616 0 006.794 2.583v-9.377zm-11.476 2.637l7.056-7.057h-10.612a18.71 18.71 0 003.556 7.057zm-7.036-24.245h-7.881l-3.906 6.25h9.215a24.879 24.879 0 012.572-6.25zm-22.113 25a6.25 6.25 0 10-6.25 6.25 6.256 6.256 0 006.25-6.25zm37.5-93.75a9.372 9.372 0 00-8.661 5.788 9.37 9.37 0 002.032 10.217 9.373 9.373 0 0014.424-1.421 9.376 9.376 0 001.58-5.208 9.388 9.388 0 00-9.375-9.375zM125 129.687v-21.875a7.812 7.812 0 10-15.625 0v17.187a3.125 3.125 0 01-3.125 3.125H87.443a7.847 7.847 0 00-6.7 3.793l-11.92 19.87a4.707 4.707 0 00-.012 4.844 12.464 12.464 0 017.748.533c.115-.142.222-.289.32-.443l11.096-17.753a3.129 3.129 0 012.65-1.469h14.741a24.842 24.842 0 0119.439-6.072c.13-.571.195-1.154.195-1.74zm12.776 16.644l-8.356 8.356h11.135a18.62 18.62 0 00-2.779-8.356zm2.256 14.606H129.42l7.056 7.057a18.71 18.71 0 003.556-7.057zm-43.157-4.688h-12.33l-2.366 3.785a11.07 11.07 0 01-.597.852 12.461 12.461 0 011.111 14.113h22.673a24.93 24.93 0 01-8.491-18.75z" fill="#FDFDFD"/></svg>