<svg width="46" height="47" fill="none" xmlns="http://www.w3.org/2000/svg"><path d="M23 45.385c12.15 0 22-9.936 22-22.193C45 10.936 35.15 1 23 1S1 10.936 1 23.192c0 12.257 9.85 22.193 22 22.193z" stroke="#161522" stroke-width="2"/><path d="M23.7 31.162s.5 0 .7-.303c.2-.202.2-.605.2-.605s0-2.018.9-2.32c.9-.303 2.1 1.916 3.3 2.723.9.605 1.7.505 1.7.505h3.3s1.7-.101.9-1.514c-.1-.1-.5-1.008-2.5-2.824-2.1-1.917-1.8-1.614.7-4.943 1.5-2.017 2.1-3.228 2-3.833-.2-.504-1.3-.404-1.3-.404h-3.8s-.3 0-.5.101-.3.404-.3.404-.6 1.614-1.4 2.925C25.9 23.9 25.3 24 25 23.9c-.6-.404-.5-1.614-.5-2.522 0-2.724.4-3.833-.8-4.136-.4-.101-.7-.202-1.8-.202-1.3 0-2.5 0-3.1.303-.4.202-.8.706-.6.706.2 0 .8.1 1.1.504.4.505.4 1.715.4 1.715s.2 3.228-.5 3.632c-.5.302-1.2-.303-2.7-2.825-.8-1.311-1.3-2.724-1.3-2.724s-.1-.302-.3-.403c-.2-.202-.6-.202-.6-.202h-3.6s-.5 0-.7.202c-.2.202 0 .605 0 .605s2.8 6.456 6 9.785c2.9 3.026 6.2 2.825 6.2 2.825h1.5z" fill="#161522"/></svg>