<svg width="26" height="22" fill="none" xmlns="http://www.w3.org/2000/svg"><mask id="a" maskUnits="userSpaceOnUse" x="0" y="0" width="26" height="22" fill="#000"><path fill="#fff" d="M0 0h26v22H0z"/><path fill-rule="evenodd" clip-rule="evenodd" d="M21.8 2H4.2c-1.21 0-2.189.99-2.189 2.2L2 17.4c0 1.21.99 2.2 2.2 2.2h17.6c1.21 0 2.2-.99 2.2-2.2V4.2c0-1.21-.99-2.2-2.2-2.2zm0 4.4L13 11.9 4.2 6.4V4.2L13 9.7l8.8-5.5v2.2z"/></mask><path d="M2.011 4.2l2 .002V4.2h-2zM2 17.4l-2-.002v.002h2zm19.8-11l1.06 1.696.94-.588V6.4h-2zM13 11.9l-1.06 1.696 1.06.662 1.06-.662L13 11.9zM4.2 6.4h-2v1.108l.94.588L4.2 6.4zm0-2.2l1.06-1.696L2.2.592V4.2h2zM13 9.7l-1.06 1.696 1.06.662 1.06-.662L13 9.7zm8.8-5.5h2V.592l-3.06 1.912L21.8 4.2zm0-4.2H4.2v4h17.6V0zM4.2 0C1.872 0 .011 1.899.011 4.2h4c0-.119.097-.2.189-.2V0zM.011 4.198L0 17.398l4 .004.011-13.2-4-.004zM0 17.4c0 2.315 1.885 4.2 4.2 4.2v-4a.193.193 0 01-.14-.06.193.193 0 01-.06-.14H0zm4.2 4.2h17.6v-4H4.2v4zm17.6 0c2.315 0 4.2-1.885 4.2-4.2h-4a.193.193 0 01-.06.14.193.193 0 01-.14.06v4zm4.2-4.2V4.2h-4v13.2h4zm0-13.2C26 1.885 24.115 0 21.8 0v4c.049 0 .097.018.14.06.042.043.06.091.06.14h4zm-5.26.504l-8.8 5.5 2.12 3.392 8.8-5.5-2.12-3.392zm-6.68 5.5l-8.8-5.5-2.12 3.392 8.8 5.5 2.12-3.392zM6.2 6.4V4.2h-4v2.2h4zm-3.06-.504l8.8 5.5 2.12-3.392-8.8-5.5-2.12 3.392zm10.92 5.5l8.8-5.5-2.12-3.392-8.8 5.5 2.12 3.392zM19.8 4.2v2.2h4V4.2h-4z" fill="#108DE7" mask="url(#a)"/></svg>