<svg width="110" height="110" fill="none" xmlns="http://www.w3.org/2000/svg"><path fill-rule="evenodd" clip-rule="evenodd" d="M52.467.186c14.126 1.141 25.005 11.007 35.154 20.898C97.96 31.16 109.495 41.81 109.98 56.238c.497 14.736-8.777 27.936-19.908 37.605-10.355 8.996-23.897 12.835-37.606 12.357-13.194-.461-25.536-5.759-35.07-14.892C7.638 81.957 1.424 69.709.32 56.238c-1.21-14.755.732-30.493 10.816-41.333C21.491 3.775 37.313-1.038 52.467.185z" fill="#F3FAFF"/><path d="M76.7 76.702c0-11.783-1.633-21.583-17.266-23.8-1.75 2.334-4.2 3.384-7 3.384s-5.25-1.05-7-3.384c-15.634 2.1-17.267 11.9-17.267 23.8" fill="#FDFDFD"/><path d="M76.7 76.702c0-11.783-1.633-21.583-17.266-23.8-1.75 2.334-4.2 3.384-7 3.384s-5.25-1.05-7-3.384c-15.634 2.1-17.267 11.9-17.267 23.8" stroke="#161522" stroke-width="2.592" stroke-miterlimit="10" stroke-linecap="round" stroke-linejoin="round"/><path d="M62.117 36.802c0 6.767-4.784 12.6-9.567 12.6s-9.217-5.95-9.567-12.6c-.35-6.767 3.617-12.133 9.567-12.133 5.833-.117 9.567 5.366 9.567 12.133z" fill="#FDFDFD"/><path d="M62.117 36.802c0 6.767-4.784 12.6-9.567 12.6s-9.217-5.95-9.567-12.6c-.35-6.767 3.617-12.133 9.567-12.133 5.833-.117 9.567 5.366 9.567 12.133z" stroke="#161522" stroke-width="2.592" stroke-miterlimit="10" stroke-linecap="round" stroke-linejoin="round"/><path d="M37.383 65.269c-1.633 4.316-1.633 10.85-1.633 15.283 4.317 1.75 10.267 3.267 16.683 3.267 6.534 0 12.367-1.517 16.684-3.267 0-4.083 0-9.917-1.167-14" fill="#FDFDFD"/><path d="M37.383 65.269c-1.633 4.316-1.633 10.85-1.633 15.283 4.317 1.75 10.267 3.267 16.683 3.267 6.534 0 12.367-1.517 16.684-3.267 0-4.083 0-9.917-1.167-14" stroke="#161522" stroke-width="2.592" stroke-miterlimit="10" stroke-linecap="round" stroke-linejoin="round"/><path d="M28.283 76.702c0 .817 3.5 2.8 7.467 2.8l-7.467-2.8z" fill="#FDFDFD"/><path d="M28.283 76.702c0 .817 3.5 2.8 7.467 2.8" stroke="#161522" stroke-width="2.592" stroke-miterlimit="10" stroke-linecap="round" stroke-linejoin="round"/><path d="M76.7 76.702c0 .817-3.5 2.8-7.467 2.8l7.467-2.8z" fill="#FDFDFD"/><path d="M76.7 76.702c0 .817-3.5 2.8-7.467 2.8" stroke="#108DE7" stroke-width="2.592" stroke-miterlimit="10" stroke-linecap="round" stroke-linejoin="round"/><path d="M81.25 63.985h-16.8c-.467 0-.933.467-.933.934v20.066c0 .467.466.934.933.934h16.8c.467 0 .933-.467.933-.934V64.92c0-.467-.466-.934-.933-.934z" fill="#FDFDFD" stroke="#108DE7" stroke-width="2.074" stroke-miterlimit="10" stroke-linecap="round" stroke-linejoin="round"/><path d="M75.184 70.752c-1.283 0-2.45 1.05-2.45 2.45 0-1.283-1.05-2.45-2.45-2.45-1.283 0-2.45 1.05-2.45 2.45 0 1.283.583 2.45 2.1 3.733 1.05 1.05 2.8 2.334 2.8 2.334s1.867-1.517 2.8-2.334c1.4-1.283 2.1-2.45 2.1-3.733 0-1.4-1.05-2.45-2.45-2.45z" fill="#FDFDFD" stroke="#108DE7" stroke-width="1.555" stroke-miterlimit="10" stroke-linejoin="round"/><path d="M74.6 62.702v-.816c0-.934-.817-1.75-1.75-1.75s-1.75.816-1.75 1.75v.816h-3.617v2.684h10.734v-2.684H74.6z" fill="#FDFDFD" stroke="#108DE7" stroke-width="1.555" stroke-miterlimit="10" stroke-linecap="round" stroke-linejoin="round"/></svg>