<svg width="110" height="111" fill="none" xmlns="http://www.w3.org/2000/svg"><path fill-rule="evenodd" clip-rule="evenodd" d="M104.279 60.572c1.617 13.58 2.288 28.811-7.014 38.836-9.487 10.224-24.889 10.71-38.836 10.576-13.77-.132-28-1.95-38.098-11.314C9.91 89.007 5.836 74.768 5.14 60.572c-.74-15.06 1.261-30.744 11.26-42.03C26.916 6.67 42.763-2.051 58.429.422 72.99 2.718 80.066 18.275 89.002 30c7.18 9.418 13.877 18.812 15.277 30.572z" fill="#F3FAFF"/><path d="M70.284 75.483a2.34 2.34 0 00-2.334 2.334v7.816l10.15-10.15h-7.816z" fill="#FDFDFD" stroke="#161522" stroke-width="2.592" stroke-miterlimit="10" stroke-linecap="round" stroke-linejoin="round"/><path d="M70.284 75.483H78.1V29.166a2.34 2.34 0 00-2.333-2.333H34a2.34 2.34 0 00-2.333 2.333V83.3A2.34 2.34 0 0034 85.633h33.95v-7.817a2.34 2.34 0 012.334-2.333z" fill="#FDFDFD" stroke="#161522" stroke-width="2.592" stroke-miterlimit="10" stroke-linecap="round" stroke-linejoin="round"/><path d="M45.55 33.833h-6.883v6.883h6.883v-6.883z" fill="#FDFDFD" stroke="#108DE7" stroke-width="2.592" stroke-miterlimit="10"/><path d="M37.15 47.95h35.467" stroke="#161522" stroke-width="2.592" stroke-miterlimit="10"/><path d="M37.15 68.6h35.467" stroke="#108DE7" stroke-width="2.592" stroke-miterlimit="10"/><path d="M37.15 54.833h35.467" stroke="#161522" stroke-width="2.592" stroke-miterlimit="10"/><path d="M37.15 61.717h35.467" stroke="#108DE7" stroke-width="2.592" stroke-miterlimit="10"/></svg>