<svg width="60" height="60" fill="none" xmlns="http://www.w3.org/2000/svg"><path d="M50.6 49.601c0-10.1-1.3-18.5-14.8-20.4-1.5 2-3.6 2.9-6 2.9s-4.5-.9-6-2.9c-13.4 1.8-14.8 10.2-14.8 20.4" fill="#F3FAFF"/><path d="M50.6 49.601c0-10.1-1.3-18.5-14.8-20.4-1.5 2-3.6 2.9-6 2.9s-4.5-.9-6-2.9c-13.4 1.8-14.8 10.2-14.8 20.4" stroke="#161522" stroke-width="1.5" stroke-miterlimit="10" stroke-linecap="round" stroke-linejoin="round"/><path d="M38.1 15.402c0 5.8-4.1 10.8-8.2 10.8s-7.9-5.1-8.2-10.8c-.3-5.8 3.1-10.4 8.2-10.4 5-.1 8.2 4.6 8.2 10.4z" fill="#F3FAFF"/><path d="M38.1 15.402c0 5.8-4.1 10.8-8.2 10.8s-7.9-5.1-8.2-10.8c-.3-5.8 3.1-10.4 8.2-10.4 5-.1 8.2 4.6 8.2 10.4z" stroke="#161522" stroke-width="1.5" stroke-miterlimit="10" stroke-linecap="round" stroke-linejoin="round"/><path d="M16.9 39.802c-1.4 3.7-1.4 9.3-1.4 13.1 3.7 1.5 8.8 2.8 14.3 2.8 5.6 0 10.6-1.3 14.3-2.8 0-3.5 0-8.5-1-12" fill="#F3FAFF"/><path d="M16.9 39.802c-1.4 3.7-1.4 9.3-1.4 13.1 3.7 1.5 8.8 2.8 14.3 2.8 5.6 0 10.6-1.3 14.3-2.8 0-3.5 0-8.5-1-12" stroke="#161522" stroke-width="1.5" stroke-miterlimit="10" stroke-linecap="round" stroke-linejoin="round"/><path d="M9.1 49.602c0 .7 3 2.4 6.4 2.4l-6.4-2.4z" fill="#F3FAFF"/><path d="M9.1 49.602c0 .7 3 2.4 6.4 2.4" stroke="#161522" stroke-width="1.5" stroke-miterlimit="10" stroke-linecap="round" stroke-linejoin="round"/><path d="M50.6 49.602c0 .7-3 2.4-6.4 2.4l6.4-2.4z" fill="#F3FAFF"/><path d="M50.6 49.602c0 .7-3 2.4-6.4 2.4" stroke="#161522" stroke-width="1.5" stroke-miterlimit="10" stroke-linecap="round" stroke-linejoin="round"/><path d="M35.3 42.002h-3.6v-3.7h-3.8v3.7h-3.6v3.7h3.6v3.7h3.8v-3.7h3.6v-3.7z" fill="#F3FAFF" stroke="#108DE7" stroke-width="1.5" stroke-miterlimit="10" stroke-linecap="round" stroke-linejoin="round"/></svg>