<svg width="46" height="48" fill="none" xmlns="http://www.w3.org/2000/svg"><path d="M23 46.266c12.15 0 22-9.936 22-22.193 0-12.256-9.85-22.192-22-22.192S1 11.817 1 24.073c0 12.257 9.85 22.193 22 22.193z" stroke="#161522" stroke-width="2"/><path d="M23 15.6c1.4 0 2.6 1.11 2.6 2.623 0 1.412-1.2 2.623-2.6 2.623-1.4 0-2.6-1.21-2.6-2.623 0-1.412 1.2-2.623 2.6-2.623zm0 8.877c3.4 0 6.2-2.824 6.2-6.254 0-3.43-2.8-6.254-6.2-6.254-3.4 0-6.2 2.824-6.2 6.254-.1 3.43 2.7 6.254 6.2 6.254zm2.5 5.044c1.3-.303 2.5-.807 3.6-1.513.9-.505 1.1-1.715.6-2.522-.5-.807-1.7-1.11-2.5-.605a7.891 7.891 0 01-8.4 0c-.9-.505-2-.303-2.5.605-.5.807-.3 2.017.6 2.522 1.1.706 2.4 1.21 3.6 1.513L17 33.05c-.7.707-.7 1.917 0 2.623.4.404.8.505 1.3.505s.9-.202 1.3-.505l3.4-3.43 3.4 3.43c.7.706 1.9.706 2.6 0 .7-.706.7-1.916 0-2.623l-3.5-3.53z" fill="#161522"/></svg>