<svg width="112" height="113" fill="none" xmlns="http://www.w3.org/2000/svg"><path fill-rule="evenodd" clip-rule="evenodd" d="M56.747.046C70.935.593 83.719 7.524 93.813 17.51c10.156 10.048 17.182 22.807 18.05 37.067.924 15.189-2.751 30.85-13.246 41.87-10.712 11.247-26.405 17.439-41.87 16-14.401-1.339-24.818-12.608-34.744-23.127C12.483 79.234 3.11 68.411 2.132 54.577 1.089 39.849 6.262 24.973 16.71 14.54 27.152 4.116 42.003-.522 56.747.046z" fill="#F3FAFF"/><path d="M77.73 42.112h-6.766v-6.766h-7.117v6.766h-6.766v7.117h6.766v6.767h7.117v-6.767h6.767v-7.117z" fill="#FDFDFD" stroke="#108DE7" stroke-width="2.074" stroke-miterlimit="10" stroke-linecap="round" stroke-linejoin="round"/><path d="M38.88 28.93c.234-.118 1.284-.35 2.334-.7s2.567.816 3.267 2.566l3.85 9.45c.7 1.75.7 3.616 0 4.083-.7.467-2.8.7-4.667.583 0 0-2.217-.233-.467 4.2 0 0 .7 1.4 1.634 3.15 0 0 1.866 3.384 4.083 6.65 2.217 3.267 4.9 6.067 4.9 6.067 1.283 1.4 2.334 2.567 2.334 2.567 3.616 3.15 4.2.933 4.2.933.466-1.867 1.4-3.733 2.1-4.2.7-.467 2.45.117 3.85 1.4l7.583 6.883c1.4 1.284 1.983 3.034 1.283 3.967-.7.933-1.283 1.75-1.4 1.983-.117.234-1.4.7-2.8 1.284-1.4.466-3.85 1.05-5.483 1.4-1.633.233-4.084-.467-5.6-1.634 0 0-.234-.116-1.634-1.4-4.9-4.2-9.916-9.683-14.35-15.983-4.433-6.417-7.816-12.833-10.033-18.9-.7-1.867-.7-2.1-.7-2.1-.583-1.75-.35-4.433.35-5.833.817-1.4 2.217-3.384 3.267-4.434.816-.933 1.866-1.866 2.1-1.983z" fill="#FDFDFD"/><path d="M38.88 28.93c.234-.118 1.284-.35 2.334-.7s2.567.816 3.267 2.566l3.85 9.45c.7 1.75.7 3.616 0 4.083-.7.467-2.8.7-4.667.583 0 0-2.217-.233-.467 4.2 0 0 .7 1.4 1.634 3.15 0 0 1.866 3.384 4.083 6.65 2.217 3.267 4.9 6.067 4.9 6.067 1.283 1.4 2.334 2.567 2.334 2.567 3.616 3.15 4.2.933 4.2.933.466-1.867 1.4-3.733 2.1-4.2.7-.467 2.45.117 3.85 1.4l7.583 6.883c1.4 1.284 1.983 3.034 1.283 3.967-.7.933-1.283 1.75-1.4 1.983-.117.234-1.4.7-2.8 1.284-1.4.466-3.85 1.05-5.483 1.4-1.633.233-4.084-.467-5.6-1.634 0 0-.234-.116-1.634-1.4-4.9-4.2-9.916-9.683-14.35-15.983-4.433-6.417-7.816-12.833-10.033-18.9-.7-1.867-.7-2.1-.7-2.1-.583-1.75-.35-4.433.35-5.833.817-1.4 2.217-3.384 3.267-4.434.816-.933 1.866-1.866 2.1-1.983z" stroke="#161522" stroke-width="2.592" stroke-miterlimit="10" stroke-linecap="round" stroke-linejoin="round"/></svg>