<svg width="60" height="60" fill="none" xmlns="http://www.w3.org/2000/svg"><path d="M50.6 49.7c0-10.1-1.3-18.5-14.8-20.4-1.5 2-3.6 2.9-6 2.9s-4.5-.9-6-2.9C10.4 31.1 9 39.5 9 49.7" fill="#F3FAFF"/><path d="M50.6 49.7c0-10.1-1.3-18.5-14.8-20.4-1.5 2-3.6 2.9-6 2.9s-4.5-.9-6-2.9C10.4 31.1 9 39.5 9 49.7" stroke="#161522" stroke-width="1.5" stroke-miterlimit="10" stroke-linecap="round" stroke-linejoin="round"/><path d="M38.1 15.4c0 5.8-4.1 10.8-8.2 10.8s-7.9-5.1-8.2-10.8C21.4 9.6 24.8 5 29.9 5s8.2 4.7 8.2 10.4z" fill="#F3FAFF"/><path d="M38.1 15.4c0 5.8-4.1 10.8-8.2 10.8s-7.9-5.1-8.2-10.8C21.4 9.6 24.8 5 29.9 5s8.2 4.7 8.2 10.4z" stroke="#161522" stroke-width="1.5" stroke-miterlimit="10" stroke-linecap="round" stroke-linejoin="round"/><path d="M17 39.9c-1.4 3.7-1.4 9.3-1.4 13.1 3.7 1.5 8.8 2.8 14.3 2.8 5.6 0 10.6-1.3 14.3-2.8 0-3.5 0-8.5-1-12" fill="#F3FAFF"/><path d="M17 39.9c-1.4 3.7-1.4 9.3-1.4 13.1 3.7 1.5 8.8 2.8 14.3 2.8 5.6 0 10.6-1.3 14.3-2.8 0-3.5 0-8.5-1-12" stroke="#161522" stroke-width="1.5" stroke-miterlimit="10" stroke-linecap="round" stroke-linejoin="round"/><path d="M9.1 49.7c0 .7 3 2.4 6.4 2.4l-6.4-2.4z" fill="#F3FAFF"/><path d="M9.1 49.7c0 .7 3 2.4 6.4 2.4" stroke="#161522" stroke-width="1.5" stroke-miterlimit="10" stroke-linecap="round" stroke-linejoin="round"/><path d="M50.6 49.7c0 .7-3 2.4-6.4 2.4l6.4-2.4z" fill="#F3FAFF"/><path d="M50.6 49.7c0 .7-3 2.4-6.4 2.4" stroke="#161522" stroke-width="1.5" stroke-miterlimit="10" stroke-linecap="round" stroke-linejoin="round"/><path d="M33 38.5c-1.7 0-3.1 1.4-3.1 3.1 0-1.7-1.4-3.1-3.1-3.1-1.7 0-3.1 1.4-3.1 3.1 0 1.7.8 3.1 2.6 4.8 1.4 1.3 3.5 3 3.5 3s2.5-1.9 3.6-3c1.8-1.6 2.6-3.1 2.6-4.8.1-1.8-1.3-3.1-3-3.1z" fill="#F3FAFF" stroke="#108DE7" stroke-width="2.074" stroke-miterlimit="10" stroke-linecap="round" stroke-linejoin="round"/></svg>