<svg width="24" height="23" fill="none" xmlns="http://www.w3.org/2000/svg"><path d="M23.917 7.09c0 6.331-10.827 15.228-11.288 15.6a.996.996 0 01-1.257 0l.921-20.697A6.99 6.99 0 0116.966.167m6.951 6.923A6.946 6.946 0 0016.966.167m6.951 6.923h-1v.002m1-.002l-1 .003v-.001M16.966.167v1h.003m-.003-1l.005 1h-.002m0 0a5.99 5.99 0 00-4.253 1.807l-.718.737-.716-.74a5.933 5.933 0 00-10.198 4.12m15.885-5.924a5.947 5.947 0 015.948 5.925M1.084 7.09c0 1.32.574 2.878 1.56 4.546.975 1.652 2.296 3.313 3.653 4.817a56.937 56.937 0 005.704 5.458h0M1.084 7.091s0 0 0 0h-1 1s0 0 0 0zm21.833 0c0 1.32-.574 2.878-1.56 4.546-.975 1.652-2.295 3.313-3.653 4.817a56.941 56.941 0 01-5.703 5.458h0m0 0h0l-.002.002s0 0 0 0 0 0 0 0h.002s0 0 0 0 0 0 0 0h.002L12 21.913h0z" fill="#FB01AD" stroke="#FB01AD" stroke-width="2"/></svg>