<svg width="24" height="23" fill="none" xmlns="http://www.w3.org/2000/svg"><path d="M23.917 7.09c0 6.331-10.827 15.228-11.289 15.6a.996.996 0 01-1.256 0l.92-20.697A6.99 6.99 0 0116.965.167m6.952 6.923A6.946 6.946 0 0016.965.167m6.952 6.923h-1v.002m1-.002l-1 .003v-.001M16.965.167v1h.003m-.003-1l.006 1h-.003m0 0a5.99 5.99 0 00-4.252 1.807l-.719.737-.716-.74a5.933 5.933 0 00-10.198 4.12m15.885-5.924a5.947 5.947 0 015.949 5.925M1.083 7.09c0 1.32.574 2.878 1.56 4.546.976 1.652 2.296 3.313 3.654 4.817A56.937 56.937 0 0012 21.913h0M1.084 7.091s0 0 0 0h-1 1s0 0 0 0zm21.833 0c0 1.32-.574 2.878-1.56 4.546-.976 1.652-2.296 3.313-3.654 4.817A56.941 56.941 0 0112 21.913h0m0 0h0l-.002.002s0 0 0 0h.003s0 0 0 0h.001l-.001-.001h0z" stroke="#161522" stroke-width="2"/></svg>