<svg width="90" height="18" fill="none" xmlns="http://www.w3.org/2000/svg"><path d="M3.336.992h11.64V17H11.28V4.112H6.936v5.496c0 3.12-.536 5.224-1.608 6.312-.848.848-2.048 1.272-3.6 1.272A5.75 5.75 0 01.24 17v-3.312c.256.096.56.144.912.144.624 0 1.112-.176 1.464-.528.48-.48.72-1.6.72-3.36V.992zm25.182 6.672c1.072 1.072 1.608 2.4 1.608 3.984s-.536 2.912-1.608 3.984c-1.152 1.152-2.712 1.728-4.68 1.728-1.968 0-3.528-.576-4.68-1.728-1.072-1.072-1.608-2.4-1.608-3.984s.536-2.912 1.608-3.984c1.152-1.152 2.712-1.728 4.68-1.728 1.968 0 3.528.576 4.68 1.728zm-2.736 1.968c-.512-.512-1.16-.768-1.944-.768s-1.432.256-1.944.768c-.528.528-.792 1.2-.792 2.016 0 .816.264 1.488.792 2.016.512.512 1.168.768 1.968.768.768 0 1.408-.256 1.92-.768.528-.528.792-1.2.792-2.016 0-.816-.264-1.488-.792-2.016zm6.5 7.368V6.296h7.2v2.832h-3.745V17h-3.456zm18.994-9.336c1.072 1.072 1.608 2.4 1.608 3.984s-.536 2.912-1.608 3.984c-1.152 1.152-2.712 1.728-4.68 1.728-1.968 0-3.528-.576-4.68-1.728-1.072-1.072-1.608-2.4-1.608-3.984s.536-2.912 1.608-3.984c1.152-1.152 2.712-1.728 4.68-1.728 1.968 0 3.528.576 4.68 1.728zM48.54 9.632c-.512-.512-1.16-.768-1.944-.768s-1.432.256-1.944.768c-.528.528-.792 1.2-.792 2.016 0 .816.264 1.488.792 2.016.512.512 1.168.768 1.968.768.768 0 1.408-.256 1.92-.768.528-.528.792-1.2.792-2.016 0-.816-.264-1.488-.792-2.016zm14.563-.552h-2.88V17h-3.456V9.08h-2.88V6.296h9.216V9.08zm1.546-2.784h3.456v6.12l4.56-6.12h3.216V17h-3.456v-6.216L67.865 17h-3.216V6.296zM78.57 17V6.296h10.632V17h-3.456V9.08h-3.72V17H78.57z" fill="#108DE7"/></svg>