<svg width="22" height="22" fill="none" xmlns="http://www.w3.org/2000/svg"><path d="M15.767 15.261l-.716 1.075c-.143.214-.332.397-.582.463-.816.216-2.983.313-6.282-2.986-3.3-3.3-3.202-5.466-2.986-6.282.066-.25.249-.439.463-.582l1.075-.716A1.74 1.74 0 007.22 3.82L5.192.775A1.74 1.74 0 003.058.141l-.915.392a3.199 3.199 0 00-1.601 1.51C.259 2.608.04 3.203.01 3.835c-.093 1.99.343 6.891 5.803 12.352 5.46 5.46 10.363 5.896 12.352 5.803.632-.03 1.227-.25 1.792-.532a3.199 3.199 0 001.51-1.6l.392-.916a1.74 1.74 0 00-.634-2.134l-3.044-2.03a1.74 1.74 0 00-2.414.483z" fill="#161522"/></svg>