<svg width="22" height="22" fill="none" xmlns="http://www.w3.org/2000/svg"><path d="M9.171 8.292a1.031 1.031 0 111.459-1.459l3.437 3.438a1.031 1.031 0 010 1.458l-3.437 3.438a1.031 1.031 0 01-1.459-1.459L11.88 11 9.17 8.292z" fill="#108DE7"/><path fill-rule="evenodd" clip-rule="evenodd" d="M.344 11c0 5.885 4.77 10.656 10.656 10.656 5.885 0 10.656-4.77 10.656-10.656C21.656 5.115 16.886.344 11 .344 5.115.344.344 5.114.344 11zm19.25 0a8.594 8.594 0 11-17.188 0 8.594 8.594 0 0117.188 0z" fill="#108DE7"/></svg>