<svg width="26" height="26" viewBox="0 0 26 26" fill="none" xmlns="http://www.w3.org/2000/svg">
<path d="M24.9163 9.09023C24.9163 15.4212 14.0895 24.3176 13.628 24.6902C13.4504 24.8345 13.2285 24.9132 12.9997 24.9132C12.7708 24.9132 12.549 24.8345 12.3713 24.6902L13.292 3.99311C13.8743 3.46173 14.5431 3.03201 15.2705 2.72301C16.1228 2.36091 17.0386 2.1718 17.9646 2.16665M24.9163 9.09023C24.9103 7.25095 24.1751 5.48915 22.8719 4.19122C21.5687 2.89329 19.8039 2.1652 17.9646 2.16665M24.9163 9.09023H23.9163C23.9163 9.09074 23.9163 9.09125 23.9163 9.09176M24.9163 9.09023L23.9163 9.0935C23.9163 9.09292 23.9163 9.09234 23.9163 9.09176M17.9646 2.16665L17.9654 3.16665C17.9662 3.16664 17.967 3.16664 17.9677 3.16664M17.9646 2.16665L17.9702 3.16663C17.9694 3.16663 17.9685 3.16664 17.9677 3.16664M17.9677 3.16664C17.175 3.17137 16.3911 3.33342 15.6615 3.64339C14.9311 3.95368 14.2696 4.40602 13.7156 4.97411L12.9967 5.71114L12.2809 4.97116C11.4595 4.122 10.4033 3.5374 9.24755 3.29224C8.09182 3.04708 6.88922 3.15253 5.7938 3.59508C4.69837 4.03763 3.76 4.79713 3.0989 5.77629C2.43789 6.75532 2.08416 7.90937 2.08301 9.09065M17.9677 3.16664C19.5414 3.16604 21.0512 3.78924 22.1662 4.89976C23.2814 6.01043 23.9107 7.5179 23.9163 9.09176M2.08301 9.09065C2.08313 10.4108 2.6569 11.9688 3.64287 13.6375C4.61837 15.2886 5.93854 16.9505 7.29637 18.4545C10.0112 21.4616 12.7885 23.7417 12.9996 23.9122L12.9997 23.9123M2.08301 9.09065C2.08301 9.09051 2.08301 9.09037 2.08301 9.09023H1.08301L2.08301 9.09112C2.08301 9.09096 2.08301 9.09081 2.08301 9.09065ZM23.9163 9.09176C23.9159 10.4116 23.3422 11.9692 22.3565 13.6375C21.381 15.2886 20.0608 16.9505 18.703 18.4545C15.9881 21.4616 13.2109 23.7417 12.9998 23.9122L12.9997 23.9123M12.9997 23.9123L12.9993 23.9126L12.9976 23.914C12.9978 23.9138 12.9981 23.9136 12.9984 23.9135C12.9985 23.9135 12.9986 23.9134 12.9986 23.9134C12.999 23.9133 12.9993 23.9132 12.9997 23.9132C13 23.9132 13.0003 23.9133 13.0007 23.9134C13.0007 23.9134 13.0007 23.9134 13.0007 23.9134C13.0011 23.9135 13.0015 23.9137 13.0018 23.914L13.0001 23.9126L12.9997 23.9123Z" stroke="#108DE7" stroke-width="2"/>
</svg>
