<svg width="28" height="28" viewBox="0 0 28 28" fill="none" xmlns="http://www.w3.org/2000/svg">
<path d="M27 8.05829V8.06011M27 8.06011V8.06218M27 8.06011C26.9933 6.18589 26.2439 4.39073 24.9159 3.0681C23.588 1.74565 21.7902 1.00352 19.9162 1.00423M27 8.06011C26.9995 9.63188 26.3163 11.4867 25.1425 13.4734C23.9809 15.4396 22.4087 17.4186 20.7918 19.2097C17.5588 22.7906 14.2528 25.6418 14.0013 25.8449M19.9134 1.00424L19.9162 1.00423M19.9162 1.00423L19.919 1.00422M19.9162 1.00423C18.9722 1.00986 18.0387 1.20284 17.1698 1.57196C16.3001 1.94147 15.5123 2.48014 14.8525 3.15664L13.9965 4.03433L13.1441 3.15313C12.1659 2.14191 10.9081 1.44575 9.53183 1.1538C8.15554 0.861853 6.72343 0.987427 5.41895 1.51443C4.11448 2.04144 2.99703 2.94589 2.20976 4.11191C1.42259 5.27778 1.00136 6.65207 1 8.05879C1.00014 9.63085 1.68341 11.4861 2.85755 13.4734C4.01921 15.4396 5.59133 17.4186 7.20829 19.2097C10.4412 22.7906 13.7497 25.6418 14.0013 25.8449M14.0013 25.8449L13.9976 25.711L13.9987 25.7103L14.0001 25.7101M14.0013 25.8449L14.0001 25.7101M14.0001 25.7101L14.0013 25.7103" stroke="#161522" stroke-width="2"/>
</svg>
