<svg width="26" height="26" viewBox="0 0 26 26" fill="none" xmlns="http://www.w3.org/2000/svg">
<mask id="path-1-outside-1" maskUnits="userSpaceOnUse" x="0" y="2" width="26" height="22" fill="black">
<rect fill="white" y="2" width="26" height="22"/>
<path fill-rule="evenodd" clip-rule="evenodd" d="M21.8 4H4.2C2.99 4 2.011 4.99 2.011 6.2L2 19.4C2 20.61 2.99 21.6 4.2 21.6H21.8C23.01 21.6 24 20.61 24 19.4V6.2C24 4.99 23.01 4 21.8 4ZM21.8 8.4L13 13.9L4.2 8.4V6.2L13 11.7L21.8 6.2V8.4Z"/>
</mask>
<path d="M2.011 6.2L4.011 6.20167V6.2H2.011ZM2 19.4L0 19.3983V19.4H2ZM21.8 8.4L22.86 10.096L23.8 9.5085V8.4H21.8ZM13 13.9L11.94 15.596L13 16.2585L14.06 15.596L13 13.9ZM4.2 8.4H2.2V9.5085L3.14 10.096L4.2 8.4ZM4.2 6.2L5.26 4.504L2.2 2.5915V6.2H4.2ZM13 11.7L11.94 13.396L13 14.0585L14.06 13.396L13 11.7ZM21.8 6.2H23.8V2.5915L20.74 4.504L21.8 6.2ZM21.8 2H4.2V6H21.8V2ZM4.2 2C1.8724 2 0.011 3.8985 0.011 6.2H4.011C4.011 6.0815 4.1076 6 4.2 6V2ZM0.0110008 6.19833L7.15256e-07 19.3983L4 19.4017L4.011 6.20167L0.0110008 6.19833ZM0 19.4C0 21.7146 1.88543 23.6 4.2 23.6V19.6C4.15122 19.6 4.10278 19.5819 4.06046 19.5395C4.01815 19.4972 4 19.4488 4 19.4H0ZM4.2 23.6H21.8V19.6H4.2V23.6ZM21.8 23.6C24.1146 23.6 26 21.7146 26 19.4H22C22 19.4488 21.9819 19.4972 21.9395 19.5395C21.8972 19.5819 21.8488 19.6 21.8 19.6V23.6ZM26 19.4V6.2H22V19.4H26ZM26 6.2C26 3.88543 24.1146 2 21.8 2V6C21.8488 6 21.8972 6.01815 21.9395 6.06046C21.9819 6.10278 22 6.15122 22 6.2H26ZM20.74 6.704L11.94 12.204L14.06 15.596L22.86 10.096L20.74 6.704ZM14.06 12.204L5.26 6.704L3.14 10.096L11.94 15.596L14.06 12.204ZM6.2 8.4V6.2H2.2V8.4H6.2ZM3.14 7.896L11.94 13.396L14.06 10.004L5.26 4.504L3.14 7.896ZM14.06 13.396L22.86 7.896L20.74 4.504L11.94 10.004L14.06 13.396ZM19.8 6.2V8.4H23.8V6.2H19.8Z" fill="#108DE7" mask="url(#path-1-outside-1)"/>
</svg>
