<svg width="18" height="18" viewBox="0 0 18 18" fill="none" xmlns="http://www.w3.org/2000/svg">
<path d="M15.1998 9.83282C15.0165 9.83282 14.8248 9.77448 14.6415 9.73282C14.2702 9.651 13.9054 9.54239 13.5498 9.40782C13.1632 9.26718 12.7383 9.27448 12.3568 9.42832C11.9752 9.58217 11.6641 9.87168 11.4832 10.2412L11.2998 10.6162C10.4882 10.1646 9.74233 9.60384 9.08318 8.94948C8.42882 8.29033 7.86803 7.54448 7.41651 6.73282L7.76651 6.49948C8.13598 6.31858 8.42549 6.00743 8.57934 5.62589C8.73318 5.24436 8.74048 4.81941 8.59984 4.43282C8.46753 4.0765 8.35896 3.71182 8.27484 3.34115C8.23317 3.15782 8.19984 2.96615 8.17484 2.77448C8.07365 2.1875 7.76619 1.65593 7.30786 1.27552C6.84952 0.895097 6.27042 0.690824 5.67484 0.699483H3.17484C2.8157 0.696111 2.46005 0.770161 2.1321 0.916592C1.80415 1.06302 1.5116 1.2784 1.27437 1.54805C1.03713 1.81771 0.860785 2.13531 0.75733 2.47925C0.653874 2.82318 0.625739 3.18537 0.67484 3.54115C1.11879 7.0323 2.7132 10.276 5.20622 12.76C7.69924 15.244 10.9488 16.8266 14.4415 17.2578H14.7582C15.3727 17.2587 15.966 17.0333 16.4248 16.6245C16.6885 16.3887 16.8991 16.0996 17.0427 15.7764C17.1864 15.4532 17.2598 15.1032 17.2582 14.7495V12.2495C17.248 11.6706 17.0372 11.1133 16.6618 10.6725C16.2864 10.2318 15.7697 9.93501 15.1998 9.83282ZM15.6165 14.8328C15.6164 14.9511 15.591 15.0681 15.5422 15.1758C15.4933 15.2836 15.4221 15.3797 15.3332 15.4578C15.2401 15.5382 15.1312 15.5983 15.0135 15.6341C14.8958 15.67 14.772 15.6809 14.6498 15.6662C11.5289 15.266 8.63004 13.8382 6.41044 11.6081C4.19084 9.3779 2.77685 6.47226 2.39151 3.34948C2.37824 3.22742 2.38987 3.10393 2.42568 2.98648C2.46148 2.86903 2.52073 2.76006 2.59984 2.66615C2.67793 2.57726 2.77406 2.50602 2.88182 2.45716C2.98959 2.40831 3.10652 2.38297 3.22484 2.38282H5.72484C5.91863 2.3785 6.10786 2.44188 6.25996 2.56204C6.41206 2.6822 6.51752 2.85162 6.55817 3.04115C6.59151 3.26893 6.63317 3.49393 6.68318 3.71615C6.77944 4.15544 6.90756 4.58713 7.06651 5.00782L5.89984 5.54948C5.80009 5.59525 5.71036 5.66027 5.63581 5.74081C5.56125 5.82135 5.50334 5.91583 5.4654 6.01881C5.42746 6.1218 5.41023 6.23126 5.41471 6.34092C5.41919 6.45058 5.44529 6.55827 5.49151 6.65782C6.69084 9.22678 8.75588 11.2918 11.3248 12.4912C11.5277 12.5745 11.7553 12.5745 11.9582 12.4912C12.0621 12.454 12.1576 12.3965 12.2392 12.3221C12.3207 12.2478 12.3866 12.1579 12.4332 12.0578L12.9498 10.8912C13.3806 11.0452 13.8203 11.1732 14.2665 11.2745C14.4887 11.3245 14.7137 11.3662 14.9415 11.3995C15.131 11.4401 15.3005 11.5456 15.4206 11.6977C15.5408 11.8498 15.6042 12.039 15.5998 12.2328L15.6165 14.8328Z" fill="#161522"/>
</svg>
