<svg width="22" height="22" viewBox="0 0 22 22" fill="none" xmlns="http://www.w3.org/2000/svg">
<path d="M15.7669 15.2614L15.0506 16.3358C14.9076 16.5503 14.7186 16.7333 14.4694 16.7991C13.6531 17.0148 11.4862 17.1122 8.18701 13.813C4.88785 10.5139 4.98523 8.34686 5.2009 7.53062C5.26675 7.28144 5.44974 7.09235 5.66419 6.94939L6.73859 6.23311C7.53852 5.69983 7.75467 4.61906 7.22139 3.81913L5.19219 0.775337C4.72672 0.0771304 3.82938 -0.189622 3.05809 0.140931L2.14271 0.533236C1.44734 0.831255 0.880103 1.3661 0.541765 2.04278C0.259095 2.60812 0.0400056 3.20345 0.0103211 3.83483C-0.0832263 5.82453 0.353064 10.7265 5.81327 16.1868C11.2735 21.647 16.1755 22.0832 18.1652 21.9897C18.7965 21.96 19.3919 21.7409 19.9572 21.4582C20.6339 21.1199 21.1687 20.5527 21.4668 19.8573L21.8591 18.9419C22.1896 18.1706 21.9229 17.2733 21.2247 16.8078L18.1809 14.7786C17.3809 14.2453 16.3002 14.4615 15.7669 15.2614Z" fill="#161522"/>
</svg>
