<svg width="114" height="112" viewBox="0 0 114 112" fill="none" xmlns="http://www.w3.org/2000/svg">
<path fill-rule="evenodd" clip-rule="evenodd" d="M57.564 109.111C43.4907 107.445 32.9856 97.1817 23.2113 86.9204C13.2539 76.467 2.12279 65.397 2.17306 50.9602C2.22438 36.2158 11.982 23.3697 23.4647 14.1204C34.1469 5.51606 47.8225 2.18276 61.5035 3.17013C74.6719 4.1205 86.8082 9.87334 95.9957 19.355C105.402 29.0623 111.156 41.5319 111.759 55.0353C112.419 69.8254 109.895 85.4802 99.4148 95.9372C88.6523 106.676 72.6624 110.897 57.564 109.111Z" fill="#F3FAFF"/>
<g clip-path="url(#clip0)">
<path d="M42.2885 91.249H71.7116C74.4687 91.249 76.7115 89.0047 76.7115 86.2479V25.7489C76.7114 22.992 74.4684 20.749 71.7116 20.749H42.2885C39.5316 20.749 37.2887 22.992 37.2887 25.7489V86.2479C37.2887 89.0047 39.5315 91.249 42.2885 91.249ZM39.646 25.7489C39.646 24.2933 40.8317 23.1064 42.2885 23.1064H71.7116C73.1682 23.1064 74.3541 24.2933 74.3541 25.7489V86.2479C74.3541 87.706 73.1683 88.8918 71.7116 88.8918H42.2885C40.8318 88.8918 39.646 87.7061 39.646 86.2479V25.7489Z" fill="#161522" stroke="#161522" stroke-width="0.5"/>
<path d="M42.4136 30.8897L42.4136 30.8896C42.4135 30.344 42.8553 29.9014 43.4018 29.9014H70.5983C71.1438 29.9014 71.5865 30.3441 71.5865 30.8895V80.5973C71.5865 81.1427 71.1438 81.5855 70.5983 81.5855H43.4018C42.8564 81.5855 42.4136 81.1427 42.4136 80.5973L42.4136 30.8897ZM41.6991 83.0143H72.3022C72.6966 83.0143 73.0165 82.6944 73.0165 82.3V29.187C73.0165 28.7928 72.6968 28.4727 72.3022 28.4727H41.6991C41.3048 28.4727 40.9848 28.7927 40.9848 29.187V82.3C40.9848 82.6945 41.3049 83.0143 41.6991 83.0143Z" fill="#161522" stroke="#161522" stroke-width="0.5"/>
<path d="M54.3887 25.8955H59.6128C59.869 25.8955 60.0771 25.6874 60.0771 25.4311C60.0771 25.1749 59.869 24.9668 59.6128 24.9668H54.3887C54.1324 24.9668 53.9243 25.1748 53.9243 25.4311C53.9243 25.6874 54.1323 25.8955 54.3887 25.8955Z" fill="#161522"/>
<path d="M59.6748 83.8262H54.3254C53.2271 83.8262 52.3331 84.7202 52.3331 85.8173V86.1368C52.3331 87.235 53.2284 88.1291 54.3254 88.1291H59.6748C60.7731 88.1291 61.6669 87.2339 61.6669 86.1368V85.8173C61.6681 84.7203 60.7731 83.8262 59.6748 83.8262ZM60.7394 86.1368C60.7394 86.7236 60.2617 87.2004 59.6759 87.2004H54.3266C53.7396 87.2004 53.263 86.7226 53.263 86.1368V85.8173C53.263 85.2316 53.7409 84.7549 54.3266 84.7549H59.6759C60.2626 84.7549 60.7394 85.2328 60.7394 85.8173V86.1368Z" fill="#161522"/>
<path d="M46.2367 51.3168C46.1084 51.4886 46.0963 51.7034 46.1503 51.8975L46.1505 51.8985L46.5253 53.2245L46.914 51.1138C46.6723 51.053 46.3994 51.099 46.2367 51.3168ZM46.2367 51.3168L46.437 51.4665L46.2366 51.317C46.2366 51.317 46.2367 51.3169 46.2367 51.3168Z" fill="#161522" stroke="#161522" stroke-width="0.5"/>
<path d="M65.7422 58.7794L65.7438 58.7798C65.7567 58.7831 65.7639 58.7875 65.7674 58.7902C65.7706 58.7927 65.7719 58.7947 65.7726 58.7962C65.7749 58.8008 65.7754 58.8039 65.7754 58.8062C65.7754 58.8086 65.7751 58.8139 65.7713 58.8228L65.77 58.8257C64.2825 62.3684 60.8394 64.6569 56.9987 64.6569C52.2621 64.6569 48.3018 61.2588 47.5826 56.5739L47.5826 56.5739L47.5823 56.5719C47.5588 56.4268 47.4841 56.3024 47.3826 56.2134L47.3826 56.2134L47.3804 56.2115C47.2559 56.1049 47.0816 56.087 46.9595 56.0957C46.8328 56.1048 46.6626 56.1496 46.5472 56.2768L46.7323 56.4448L46.5482 56.2758C46.4284 56.4062 46.3756 56.5809 46.4038 56.7568L46.6506 56.7173L46.4035 56.7552C47.2123 62.0244 51.6683 65.8492 56.9973 65.8492C61.3495 65.8492 65.2343 63.2473 66.8965 59.2214C66.9287 59.1448 67.0178 59.1025 67.0841 59.1187C67.1491 59.1361 67.216 59.1454 67.2822 59.1454C67.4677 59.1454 67.6455 59.0717 67.7623 58.9179L67.7637 58.916C67.8915 58.7445 67.904 58.53 67.8499 58.3356L67.8496 58.3346L67.4747 57.0075C67.4105 56.7793 67.2516 56.6 67.0309 56.5431C66.8093 56.4859 66.583 56.5669 66.4158 56.74C66.4156 56.7402 66.4154 56.7404 66.4153 56.7406L65.4543 57.7273C65.4542 57.7274 65.4541 57.7275 65.454 57.7276C65.2965 57.8887 65.2007 58.1165 65.2657 58.349C65.3301 58.585 65.5286 58.7239 65.7422 58.7794ZM65.5067 58.2824C65.5401 58.4062 65.6478 58.4966 65.8051 58.5375C65.8932 58.5598 65.9612 58.613 65.997 58.686C66.0329 58.759 66.0355 58.842 66.0005 58.9225L65.5067 58.2824Z" fill="#161522" stroke="#161522" stroke-width="0.5"/>
</g>
<defs>
<clipPath id="clip0">
<rect width="70" height="70" fill="white" transform="translate(22.0002 20.999)"/>
</clipPath>
</defs>
</svg>
