<svg width="127" height="119" viewBox="0 0 127 119" fill="none" xmlns="http://www.w3.org/2000/svg">
<path fill-rule="evenodd" clip-rule="evenodd" d="M59.9609 10.364C73.0345 6.35266 87.9029 2.97702 99.4248 10.3428C111.176 17.8552 114.4 32.9237 116.755 46.6711C119.079 60.2451 119.827 74.5697 112.413 86.1757C104.762 98.1534 91.4777 104.7 77.6336 107.916C62.9466 111.328 47.1567 112.156 34.2691 104.329C20.7128 96.096 9.30624 82.0581 8.94631 66.2018C8.61179 51.4649 22.6585 41.7288 32.6011 30.8461C40.5893 22.1027 48.6387 13.8379 59.9609 10.364Z" fill="#F3FAFF"/>
<g clip-path="url(#clip0)">
<path d="M79.7589 72.9739C79.1357 72.555 78.2901 72.721 77.8709 73.3445C77.162 74.3997 76.3816 75.3903 75.5414 76.3155C73.3066 74.5026 70.8023 73.0408 68.1138 71.9593C68.2212 71.4862 68.325 71.007 68.4213 70.5161C68.5661 69.7789 68.0857 69.0637 67.3485 68.9189C66.6111 68.7743 65.896 69.2547 65.7513 69.9917C65.6807 70.3512 65.6056 70.7042 65.5285 71.054C62.6481 70.19 59.6004 69.7395 56.4765 69.7395C53.3626 69.7395 50.3111 70.1927 47.4231 71.061C46.698 67.7743 46.2753 64.1448 46.1939 60.3598H61.4071C62.1587 60.3598 62.7676 59.7508 62.7676 58.9993C62.7676 58.2477 62.1587 57.6388 61.4071 57.6388H46.1939C46.2815 53.5618 46.7648 49.665 47.5963 46.1832C50.62 47.1463 53.837 47.6482 57.1386 47.6482C59.983 47.6482 62.7749 47.2694 65.4382 46.5426C65.547 47.0162 65.651 47.498 65.7478 47.9901C65.8931 48.7272 66.6071 49.2068 67.3456 49.0624C68.0826 48.9173 68.5628 48.202 68.4179 47.4646C68.2998 46.8649 68.1726 46.2799 68.0384 45.7069C70.7216 44.7088 73.2358 43.34 75.4921 41.6297C76.3261 42.5425 77.1016 43.5194 77.8073 44.5597C78.2292 45.1817 79.0752 45.3431 79.6969 44.9219C80.3187 44.5002 80.4809 43.6541 80.0592 43.0323C74.7456 35.1989 65.9296 30.5225 56.4765 30.5225C40.7746 30.5226 28.0001 43.2973 28.0001 58.9993C28.0001 74.7012 40.7746 87.4759 56.4765 87.4759C65.9804 87.4759 74.8225 82.7604 80.1295 74.8617C80.5486 74.2381 80.3828 73.3929 79.7589 72.9739ZM73.5944 78.2439C70.529 80.9722 66.8587 82.9269 62.8864 83.9458C64.7184 81.7398 66.2763 78.5646 67.4274 74.6183C69.6485 75.5458 71.7231 76.7619 73.5944 78.2439ZM56.4765 72.4605C59.3744 72.4605 62.1979 72.8839 64.8599 73.695C62.9157 80.4398 59.7279 84.7549 56.4765 84.7549C53.9772 84.7549 51.428 82.16 49.4828 77.6359C48.9595 76.4189 48.4948 75.1003 48.0902 73.7008C50.7599 72.8857 53.5877 72.4605 56.4765 72.4605ZM46.9832 78.7108C47.89 80.8198 48.9278 82.5748 50.0642 83.9469C46.0357 82.9109 42.3863 80.921 39.3697 78.235C41.2363 76.7608 43.3106 75.5503 45.5282 74.6246C45.9528 76.0727 46.4379 77.4421 46.9832 78.7108ZM57.1388 44.9274C54.0806 44.9274 51.1049 44.4567 48.315 43.5555C48.6649 42.4311 49.0535 41.3616 49.483 40.3626C51.4282 35.8386 53.9772 33.2436 56.4767 33.2436C59.6641 33.2436 62.7916 37.3926 64.7451 43.9121C62.3071 44.5796 59.7481 44.9274 57.1388 44.9274ZM45.7667 42.589C43.7182 41.6921 41.7991 40.5475 40.0563 39.1721C42.9338 36.7849 46.337 35.0105 50.0644 34.0518C48.9278 35.4239 47.89 37.1789 46.9833 39.2879C46.5375 40.3249 46.1324 41.4298 45.7667 42.589ZM62.8872 34.0545C66.8295 35.0669 70.4764 37.0011 73.5288 39.6982C71.6373 41.0861 69.5525 42.2155 67.3345 43.0646C66.1934 39.2652 64.6698 36.2013 62.8872 34.0545ZM38.0347 41.0402C40.1484 42.7611 42.5035 44.1688 45.0291 45.2354C44.1009 49.0072 43.5636 53.2313 43.4724 57.6389H30.757C31.0939 51.1993 33.8078 45.3796 38.0347 41.0402ZM30.757 60.3598H43.4724C43.5573 64.4585 44.0265 68.4003 44.8381 71.966C42.153 73.0461 39.651 74.5058 37.422 76.31C33.5458 72.0473 31.0773 66.4832 30.757 60.3598Z" fill="#161522"/>
<path d="M77.8247 51.2314C73.3002 51.2314 69.6191 54.9126 69.6191 59.437C69.6191 60.1886 70.228 60.7975 70.9796 60.7975C71.7311 60.7975 72.3401 60.1886 72.3401 59.437C72.3401 56.4128 74.8004 53.9524 77.8247 53.9524C78.5762 53.9524 79.1852 53.3435 79.1852 52.5919C79.1852 51.8404 78.5762 51.2314 77.8247 51.2314Z" fill="#161522"/>
<path d="M97.6017 73.8411L91.564 67.8034C91.0325 67.2723 90.1712 67.2723 89.6399 67.8034C89.1086 68.3349 89.1086 69.1962 89.6399 69.7275L94.7156 74.8031L93.1913 76.3274L85.6776 68.8135C85.9515 68.5833 86.2183 68.3422 86.4745 68.0861C88.7848 65.7758 90.0571 62.7038 90.0571 59.4364C90.0571 56.169 88.7848 53.0972 86.4745 50.7867C84.1642 48.4763 81.0922 47.2041 77.8248 47.2041C74.5574 47.2041 71.4856 48.4764 69.1751 50.7867C66.8647 53.097 65.5925 56.169 65.5925 59.4364C65.5925 62.7038 66.8648 65.7756 69.1751 68.0861C71.4854 70.3965 74.5574 71.6687 77.8248 71.6687C79.7817 71.6687 81.6672 71.209 83.3624 70.3465L92.2293 79.2135C92.4951 79.479 92.8434 79.6118 93.1915 79.6118C93.5396 79.6118 93.8879 79.479 94.1536 79.2135L97.602 75.7651C98.133 75.2339 98.133 74.3725 97.6017 73.8411ZM71.0994 66.1621C69.303 64.3657 68.3137 61.9773 68.3137 59.4368C68.3137 56.8963 69.303 54.5078 71.0994 52.7114C72.8958 50.915 75.2843 49.9256 77.8248 49.9256C80.3653 49.9256 82.7538 50.915 84.5502 52.7114C86.3466 54.5078 87.3359 56.8963 87.3359 59.4368C87.3359 61.9773 86.3466 64.3657 84.5502 66.1621C82.7538 67.9585 80.3653 68.9479 77.8248 68.9479C75.2843 68.9479 72.8958 67.9585 71.0994 66.1621Z" fill="#161522"/>
</g>
<defs>
<clipPath id="clip0">
<rect width="70" height="70" fill="white" transform="translate(28.0001 24)"/>
</clipPath>
</defs>
</svg>
