<svg width="132" height="131" viewBox="0 0 132 131" fill="none" xmlns="http://www.w3.org/2000/svg">
<path fill-rule="evenodd" clip-rule="evenodd" d="M121.189 54.2951C123.371 68.3249 119.017 82.2009 111.15 94.0205C103.234 105.913 92.0582 115.254 78.2288 118.838C63.4978 122.655 47.4229 122.048 34.5968 113.859C21.5054 105.5 12.4215 91.2848 10.8703 75.8303C9.42578 61.4397 18.4903 49.057 26.9119 37.299C34.9881 26.0234 43.8141 14.7509 57.2052 11.1393C71.4604 7.29471 87.0521 9.52189 99.2926 17.7779C111.525 26.0283 118.922 39.7159 121.189 54.2951Z" fill="#F3FAFF"/>
<g clip-path="url(#clip0)">
<path d="M99.6035 50.2975L85.3543 36.0483C84.4522 35.1462 83.2529 34.6494 81.9771 34.6494C80.7014 34.6494 79.5021 35.1462 78.6002 36.0483L75.2516 39.3967C74.7363 39.912 74.369 40.5181 74.1387 41.1629L58.4712 38.3579C58.4702 38.3576 58.4689 38.3576 58.4678 38.3573C51.4232 36.959 44.5451 41.5389 43.1245 48.5843L42.4019 52.1688C41.6038 56.1272 44.1752 59.9967 48.1336 60.7948C52.0923 61.5924 55.9618 59.0215 56.7599 55.063L57.2016 52.871L64.2274 53.4854L82.575 71.8331L85.9003 75.1583C86.5737 75.8317 86.5735 76.9274 85.9003 77.6008C85.2272 78.2739 84.1315 78.2742 83.4581 77.6008L74.5507 68.6934C73.9303 68.073 72.924 68.073 72.3039 68.6934C71.6835 69.3138 71.6835 70.3197 72.3039 70.9402L81.2113 79.8476C81.5376 80.1738 81.7171 80.6076 81.7171 81.0689C81.7171 81.5301 81.5376 81.9636 81.2113 82.2898C80.5377 82.9632 79.4422 82.9629 78.7691 82.2898L69.8617 73.3824C69.2413 72.762 68.2351 72.762 67.6149 73.3824C66.9945 74.0028 66.9945 75.0087 67.6149 75.6292L76.5224 84.5366C77.1957 85.2097 77.1957 86.3054 76.5224 86.9788C76.1961 87.305 75.7624 87.4846 75.3014 87.4846C74.8401 87.4846 74.4064 87.305 74.0801 86.9788L65.1727 78.0714C64.5523 77.451 63.5461 77.451 62.9259 78.0714C62.3055 78.6918 62.3055 79.6977 62.9259 80.3181L71.8334 89.2256C72.5067 89.899 72.5065 90.9947 71.8334 91.6681C71.1602 92.3412 70.0645 92.3415 69.3911 91.6681L37.8744 60.1519L33.7123 55.9898C33.0919 55.3694 32.0857 55.3694 31.4656 55.9898C30.8451 56.6102 30.8451 57.6162 31.4656 58.2366L35.6276 62.3987L40.1569 66.928L37.6602 69.4247C36.8428 70.2422 36.3923 71.3291 36.3923 72.4855C36.3923 73.6419 36.8425 74.7289 37.6602 75.5463L38.475 76.361C39.1896 77.0757 40.1103 77.5095 41.103 77.6074C41.201 78.6002 41.6348 79.5209 42.3494 80.2353L43.1642 81.0503C43.898 81.7841 44.8319 82.1979 45.7918 82.2935C45.889 83.2873 46.3232 84.2093 47.0387 84.9245L47.8535 85.7393C48.5682 86.454 49.4889 86.8877 50.4816 86.9857C50.5795 87.9784 51.0133 88.8991 51.728 89.6138L52.5427 90.4286C53.3866 91.2725 54.4951 91.6943 55.6035 91.6943C56.7119 91.6943 57.8204 91.2725 58.6643 90.4286L61.161 87.9318L67.1441 93.9149C68.0706 94.8414 69.3022 95.3514 70.6121 95.3514C71.9221 95.3514 73.1539 94.8411 74.0801 93.9149C74.9577 93.0373 75.456 91.8847 75.5066 90.6523C76.7392 90.6018 77.8916 90.1034 78.7694 89.2259C79.6739 88.3213 80.145 87.1486 80.194 85.9612C81.3811 85.9122 82.5541 85.4412 83.4584 84.5369C84.3629 83.6323 84.834 82.4596 84.883 81.2722C86.0703 81.2232 87.2434 80.7522 88.1477 79.8476C90.06 77.9353 90.06 74.8239 88.1477 72.9116L85.9459 70.7098L94.0018 62.6539L99.6038 57.0519C101.466 55.1896 101.466 52.1595 99.6035 50.2975ZM39.907 73.2992C39.4581 72.8504 39.4581 72.1204 39.907 71.6715L42.2483 69.3302L44.6908 71.7727L42.3494 74.114C41.9009 74.5628 41.1703 74.5626 40.7217 74.114L39.907 73.2992ZM44.5962 77.9885C44.1474 77.5397 44.1474 76.8096 44.5962 76.361L46.9376 74.0197L49.38 76.4622L47.039 78.8035C46.5901 79.2521 45.8596 79.2523 45.4113 78.8035L44.5962 77.9885ZM49.2852 82.6777C49.0678 82.4604 48.9481 82.1712 48.9481 81.864C48.9481 81.5569 49.0678 81.2677 49.2852 81.0503L51.6266 78.709L54.0688 81.1512L51.7274 83.4925C51.2789 83.9411 50.5486 83.9411 50.1 83.4925L49.2852 82.6777ZM56.417 88.1818C55.9684 88.6306 55.2378 88.6304 54.7893 88.1818L53.9745 87.367C53.5257 86.9182 53.5257 86.1881 53.9745 85.7393L56.3158 83.398L58.7583 85.8405L56.417 88.1818ZM83.6986 68.4627L66.0653 50.8295C65.801 50.5652 65.4526 50.4026 65.0803 50.3703L56.0632 49.582C56.0163 49.5778 55.9697 49.5759 55.9237 49.5759C55.1745 49.5759 54.5181 50.1042 54.3674 50.8509L53.6448 54.4355C53.1931 56.6762 51.0037 58.1315 48.7615 57.68C47.6761 57.4613 46.7405 56.8327 46.1278 55.9104C45.5151 54.9881 45.2979 53.8823 45.5169 52.7966L46.2396 49.2124C47.3162 43.8717 52.5348 40.4013 57.8776 41.4793C57.8887 41.4814 57.9001 41.4838 57.9115 41.4856L73.3506 44.2498L75.2516 46.1508L90.6312 61.5304L83.6986 68.4627ZM97.3565 54.8048L92.8777 59.2836L77.4981 43.904C77.1963 43.6021 77.03 43.2007 77.03 42.7736C77.03 42.3465 77.1963 41.9453 77.4981 41.6432L80.8467 38.2946C81.1486 37.9927 81.55 37.8264 81.9769 37.8264C82.4037 37.8264 82.8052 37.9927 83.1073 38.2946L97.3565 52.5438C97.6583 52.8456 97.8246 53.2471 97.8246 53.6742C97.8246 54.1013 97.6583 54.503 97.3565 54.8048Z" fill="#161522"/>
<path d="M93.5105 55.8943C94.388 55.8943 95.0993 55.183 95.0993 54.3056C95.0993 53.4281 94.388 52.7168 93.5105 52.7168C92.6331 52.7168 91.9218 53.4281 91.9218 54.3056C91.9218 55.183 92.6331 55.8943 93.5105 55.8943Z" fill="#161522"/>
</g>
<defs>
<clipPath id="clip0">
<rect width="70" height="70" fill="white" transform="translate(31 30)"/>
</clipPath>
</defs>
</svg>
