<svg width="22" height="22" viewBox="0 0 22 22" fill="none" xmlns="http://www.w3.org/2000/svg">
<path d="M9.17119 8.2917C8.76846 7.88898 8.76846 7.23602 9.17119 6.8333C9.57392 6.43057 10.2269 6.43057 10.6296 6.8333L14.0671 10.2708C14.4698 10.6735 14.4698 11.3265 14.0671 11.7292L10.6296 15.1667C10.2269 15.5694 9.57392 15.5694 9.17119 15.1667C8.76846 14.764 8.76846 14.111 9.17119 13.7083L11.8795 11L9.17119 8.2917Z" fill="#108DE7"/>
<path fill-rule="evenodd" clip-rule="evenodd" d="M0.34375 11C0.34375 16.8853 5.11472 21.6562 11 21.6562C16.8853 21.6562 21.6562 16.8853 21.6562 11C21.6562 5.11472 16.8853 0.34375 11 0.34375C5.11472 0.34375 0.34375 5.11472 0.34375 11ZM19.5938 11C19.5938 15.7462 15.7462 19.5938 11 19.5938C6.2538 19.5938 2.40625 15.7462 2.40625 11C2.40625 6.2538 6.2538 2.40625 11 2.40625C15.7462 2.40625 19.5938 6.2538 19.5938 11Z" fill="#108DE7"/>
</svg>
