<svg width="28" height="23" viewBox="0 0 28 23" fill="none" xmlns="http://www.w3.org/2000/svg">
<path d="M2.33333 22.75H1C0.447715 22.75 0 22.3023 0 21.75V20.4167V3.5V1.75C0 1.42783 0.261167 1.16667 0.583333 1.16667H1.75C2.07217 1.16667 2.33333 0.905499 2.33333 0.583333C2.33333 0.261167 2.5945 0 2.91667 0H7H7.58333H8.75C9.07217 0 9.33333 0.261167 9.33333 0.583333C9.33333 0.905499 9.5945 1.16667 9.91667 1.16667H25.6667H27C27.5523 1.16667 28 1.61438 28 2.16667V3.5V21.5833V22.1667C28 22.4888 27.7388 22.75 27.4167 22.75H2.33333ZM26.8333 3.33333C26.8333 2.78105 26.3856 2.33333 25.8333 2.33333H2.16667C1.61438 2.33333 1.16667 2.78105 1.16667 3.33333V20.5833C1.16667 21.1356 1.61438 21.5833 2.16667 21.5833H25.8333C26.3856 21.5833 26.8333 21.1356 26.8333 20.5833V3.33333ZM10.5 7C13.3998 7 15.75 9.35025 15.75 12.25C15.75 15.1498 13.3998 17.5 10.5 17.5C7.60025 17.5 5.25 15.1498 5.25 12.25C5.25 9.35025 7.60025 7 10.5 7ZM10.5 16.3333C12.7552 16.3333 14.5833 14.5052 14.5833 12.25C14.5833 9.99483 12.7552 8.16667 10.5 8.16667C8.24483 8.16667 6.41667 9.99483 6.41667 12.25C6.41667 14.5052 8.24483 16.3333 10.5 16.3333ZM23.9167 5.83333C23.9167 6.1555 23.6555 6.41667 23.3333 6.41667H19.8333C19.5112 6.41667 19.25 6.1555 19.25 5.83333C19.25 5.51117 19.5112 5.25 19.8333 5.25H23.3333C23.6555 5.25 23.9167 5.51117 23.9167 5.83333Z" fill="#108DE7"/>
</svg>
