<svg width="16" height="16" viewBox="0 0 16 16" fill="none" xmlns="http://www.w3.org/2000/svg">
<path fill-rule="evenodd" clip-rule="evenodd" d="M13.1379 2.86225C12.8776 2.6019 12.4554 2.6019 12.1951 2.86225L7.99984 7.05752L3.80457 2.86225C3.54423 2.6019 3.12212 2.6019 2.86177 2.86225C2.60142 3.1226 2.60142 3.54471 2.86177 3.80506L7.05703 8.00033L2.86177 12.1956C2.60142 12.4559 2.60142 12.878 2.86177 13.1384C3.12212 13.3987 3.54423 13.3987 3.80457 13.1384L7.99984 8.94313L12.1951 13.1384C12.4554 13.3987 12.8776 13.3987 13.1379 13.1384C13.3983 12.878 13.3983 12.4559 13.1379 12.1956L8.94265 8.00033L13.1379 3.80506C13.3983 3.54471 13.3983 3.1226 13.1379 2.86225Z" fill="white"/>
</svg>
