<svg width="26" height="26" viewBox="0 0 26 26" fill="none" xmlns="http://www.w3.org/2000/svg">
<path d="M24.9173 9.09023C24.9173 15.4212 14.0905 24.3176 13.629 24.6902C13.4514 24.8345 13.2295 24.9132 13.0007 24.9132C12.7718 24.9132 12.5499 24.8345 12.3723 24.6902L13.293 3.99311C13.8753 3.46173 14.5441 3.03201 15.2714 2.72301C16.1238 2.36091 17.0395 2.1718 17.9656 2.16665M24.9173 9.09023C24.9113 7.25095 24.176 5.48915 22.8728 4.19122C21.5696 2.89329 19.8049 2.1652 17.9656 2.16665M24.9173 9.09023H23.9173C23.9173 9.09074 23.9173 9.09125 23.9173 9.09176M24.9173 9.09023L23.9173 9.0935C23.9173 9.09292 23.9173 9.09234 23.9173 9.09176M17.9656 2.16665L17.9664 3.16665C17.9671 3.16664 17.9679 3.16664 17.9687 3.16664M17.9656 2.16665L17.9711 3.16663C17.9703 3.16663 17.9695 3.16664 17.9687 3.16664M17.9687 3.16664C17.176 3.17137 16.3921 3.33342 15.6624 3.64339C14.9321 3.95368 14.2706 4.40602 13.7165 4.97411L12.9977 5.71114L12.2819 4.97116C11.4605 4.122 10.4043 3.5374 9.24853 3.29224C8.0928 3.04708 6.8902 3.15253 5.79477 3.59508C4.69935 4.03763 3.76098 4.79713 3.09988 5.77629C2.43886 6.75532 2.08513 7.90937 2.08398 9.09065M17.9687 3.16664C19.5424 3.16604 21.0521 3.78924 22.1672 4.89976C23.2824 6.01043 23.9117 7.5179 23.9173 9.09176M2.08398 9.09065C2.08411 10.4108 2.65788 11.9688 3.64384 13.6375C4.61935 15.2886 5.93952 16.9505 7.29735 18.4545C10.0122 21.4616 12.7894 23.7417 13.0006 23.9122L13.0006 23.9123M2.08398 9.09065C2.08398 9.09051 2.08398 9.09037 2.08398 9.09023H1.08398L2.08398 9.09112C2.08398 9.09096 2.08398 9.09081 2.08398 9.09065ZM23.9173 9.09176C23.9169 10.4116 23.3432 11.9692 22.3575 13.6375C21.382 15.2886 20.0618 16.9505 18.704 18.4545C15.9891 21.4616 13.2119 23.7417 13.0007 23.9122L13.0006 23.9123M13.0006 23.9123L13.0003 23.9126L12.9985 23.914C12.9988 23.9138 12.9991 23.9136 12.9994 23.9135C12.9995 23.9135 12.9995 23.9134 12.9996 23.9134C12.9999 23.9133 13.0003 23.9132 13.0007 23.9132C13.001 23.9132 13.0013 23.9133 13.0016 23.9134C13.0017 23.9134 13.0017 23.9134 13.0017 23.9134C13.0021 23.9135 13.0024 23.9137 13.0028 23.914L13.001 23.9126L13.0006 23.9123Z" fill="#FB01AD" stroke="#FB01AD" stroke-width="2"/>
</svg>
