<svg width="200" height="200" viewBox="0 0 200 200" fill="none" xmlns="http://www.w3.org/2000/svg">
<path d="M28.1789 6.25009C31.0601 6.24198 33.9143 6.80546 36.5762 7.90792C39.2381 9.01037 41.6549 10.6299 43.6867 12.6727L53.6957 22.6837L63.7066 12.6727C66.7736 9.6059 70.6811 7.5174 74.935 6.67137C79.1889 5.82534 83.5982 6.25977 87.6052 7.91972C91.6122 9.57967 95.0369 12.3906 97.4464 15.997C99.8558 19.6034 101.142 23.8433 101.141 28.1806C101.141 28.2352 101.138 28.2891 101.137 28.3438C101.258 28.3902 101.375 28.4438 101.489 28.5044L176.489 69.1294C176.984 69.3974 177.397 69.794 177.685 70.2773C177.973 70.7605 178.125 71.3125 178.125 71.8751V190.625C178.125 191.454 177.796 192.249 177.21 192.835C176.624 193.421 175.829 193.75 175 193.75H25C24.1712 193.75 23.3763 193.421 22.7903 192.835C22.2042 192.249 21.875 191.454 21.875 190.625V68.7501C21.875 68.1698 22.0366 67.6009 22.3417 67.1073C22.6468 66.6136 23.0833 66.2147 23.6023 65.9552L31.1629 62.1747L12.6723 43.6848C9.60568 40.6179 7.51736 36.7105 6.6714 32.4568C5.82544 28.2031 6.25981 23.794 7.91959 19.7871C9.57936 15.7802 12.39 12.3555 15.9961 9.94591C19.6022 7.53636 23.8418 6.2502 28.1789 6.25009ZM35.7726 66.8575L28.125 70.6813V187.5H171.875V73.7364L100.104 34.8606C99.0416 38.191 97.1945 41.2173 94.7184 43.6848L60.2781 78.1251H68.75C69.5788 78.1251 70.3736 78.4543 70.9597 79.0404C71.5458 79.6264 71.875 80.4213 71.875 81.2501C71.875 82.0789 71.5458 82.8737 70.9597 83.4598C70.3736 84.0458 69.5788 84.3751 68.75 84.3751H37.5C36.6712 84.3751 35.8763 84.0458 35.2903 83.4598C34.7042 82.8737 34.375 82.0789 34.375 81.2501C34.375 80.4213 34.7042 79.6264 35.2903 79.0404C35.8763 78.4543 36.6712 78.1251 37.5 78.1251H47.1129L35.8203 66.8313C35.8031 66.8395 35.7887 66.8497 35.7726 66.8575ZM17.0922 39.2653L53.6957 75.8669L90.2973 39.2653C93.2 36.3173 94.82 32.3415 94.804 28.2042C94.788 24.067 93.1375 20.1038 90.2121 17.1782C87.2866 14.2527 83.3235 12.602 79.1862 12.5859C75.049 12.5698 71.0731 14.1896 68.125 17.0923L55.9043 29.313C55.6141 29.6032 55.2696 29.8334 54.8904 29.9904C54.5113 30.1475 54.1049 30.2283 53.6945 30.2283C53.2841 30.2283 52.8777 30.1475 52.4986 29.9904C52.1194 29.8334 51.7749 29.6032 51.4848 29.313L39.2641 17.0923C36.3187 14.1761 32.3385 12.5448 28.1937 12.5552C24.0489 12.5655 20.0769 14.2166 17.1461 17.1474C14.2153 20.0781 12.5642 24.0502 12.5539 28.195C12.5436 32.3397 14.1748 36.32 17.091 39.2653H17.0922Z" fill="#FDFDFD"/>
<path d="M41.6604 37.5H44.7854V34.375C44.7854 33.5462 45.1146 32.7513 45.7007 32.1653C46.2867 31.5792 47.0816 31.25 47.9104 31.25H60.4104C61.2392 31.25 62.034 31.5792 62.6201 32.1653C63.2062 32.7513 63.5354 33.5462 63.5354 34.375V37.5H66.6604C67.4892 37.5 68.284 37.8292 68.8701 38.4153C69.4562 39.0013 69.7854 39.7962 69.7854 40.625V53.125C69.7854 53.9538 69.4562 54.7487 68.8701 55.3347C68.284 55.9208 67.4892 56.25 66.6604 56.25H63.5354V59.375C63.5354 60.2038 63.2062 60.9987 62.6201 61.5847C62.034 62.1708 61.2392 62.5 60.4104 62.5H47.9104C47.0816 62.5 46.2867 62.1708 45.7007 61.5847C45.1146 60.9987 44.7854 60.2038 44.7854 59.375V56.25H41.6604C40.8316 56.25 40.0367 55.9208 39.4507 55.3347C38.8646 54.7487 38.5354 53.9538 38.5354 53.125V40.625C38.5354 39.7962 38.8646 39.0013 39.4507 38.4153C40.0367 37.8292 40.8316 37.5 41.6604 37.5ZM44.7854 50H47.9104C48.7392 50 49.534 50.3292 50.1201 50.9153C50.7062 51.5013 51.0354 52.2962 51.0354 53.125V56.25H57.2854V53.125C57.2854 52.2962 57.6146 51.5013 58.2007 50.9153C58.7867 50.3292 59.5816 50 60.4104 50H63.5354V43.75H60.4104C59.5816 43.75 58.7867 43.4208 58.2007 42.8347C57.6146 42.2487 57.2854 41.4538 57.2854 40.625V37.5H51.0354V40.625C51.0354 41.4538 50.7062 42.2487 50.1201 42.8347C49.534 43.4208 48.7392 43.75 47.9104 43.75H44.7854V50Z" fill="#FDFDFD"/>
<path d="M37.5 90.6235C38.3288 90.6235 39.1237 90.9527 39.7097 91.5388C40.2958 92.1248 40.625 92.9197 40.625 93.7485V174.998H61.0547C59.6395 172.558 59.0941 169.709 59.5078 166.918C59.9215 164.127 61.2697 161.559 63.332 159.634C62.3676 157.945 61.871 156.03 61.8936 154.085C61.9162 152.14 62.4571 150.236 63.4606 148.57L75.382 128.701C76.6368 126.623 78.4056 124.903 80.5181 123.707C82.6306 122.512 85.0155 121.88 87.443 121.873H103.125V107.811C103.124 105.918 103.507 104.045 104.25 102.304C104.993 100.563 106.081 98.9904 107.448 97.6813C104.623 95.9475 102.421 93.3599 101.163 90.2927C99.9046 87.2255 99.6542 83.8376 100.448 80.6187C101.242 77.3999 103.039 74.5168 105.579 72.3864C108.119 70.256 111.271 68.9886 114.579 68.7674C117.887 68.5462 121.179 69.3828 123.981 71.156C126.782 72.9293 128.947 75.5475 130.162 78.632C131.377 81.7166 131.58 85.1077 130.741 88.3151C129.902 91.5225 128.065 94.3801 125.495 96.4747C127.278 97.7789 128.728 99.485 129.728 101.455C130.728 103.424 131.249 105.602 131.25 107.811V129.686C131.25 130.778 131.123 131.866 130.872 132.928C134.882 134.472 138.427 137.024 141.162 140.338C143.898 143.652 145.732 147.615 146.487 151.846C147.243 156.076 146.894 160.43 145.474 164.485C144.055 168.541 141.613 172.162 138.384 174.998H159.375V80.0141L101.391 49.6415C101.021 49.4546 100.693 49.1961 100.424 48.8811C100.155 48.566 99.9513 48.2007 99.8249 47.8063C99.6985 47.4118 99.6517 46.9962 99.6874 46.5836C99.723 46.1709 99.8404 45.7695 100.033 45.4026C100.225 45.0357 100.488 44.7106 100.807 44.4464C101.126 44.1821 101.494 43.9838 101.89 43.8632C102.286 43.7425 102.703 43.7017 103.115 43.7433C103.527 43.785 103.927 43.9081 104.291 44.1055L163.95 75.3555C164.455 75.6201 164.878 76.018 165.174 76.5059C165.469 76.9938 165.625 77.5532 165.625 78.1235V178.123C165.625 178.952 165.296 179.747 164.71 180.333C164.124 180.919 163.329 181.248 162.5 181.248H37.5C36.6712 181.248 35.8763 180.919 35.2903 180.333C34.7042 179.747 34.375 178.952 34.375 178.123V93.7485C34.375 92.9197 34.7042 92.1248 35.2903 91.5388C35.8763 90.9527 36.6712 90.6235 37.5 90.6235ZM105.974 146.33C104.393 148.853 103.44 151.718 103.195 154.686H114.33L105.974 146.33ZM118.75 150.266V137.764C115.591 138.297 112.623 139.635 110.131 141.647L118.75 150.266ZM125 137.764V150.266L133.619 141.647C131.127 139.635 128.159 138.297 125 137.764ZM131.794 172.15L125 165.356V174.733C127.412 174.327 129.721 173.449 131.794 172.15ZM118.75 165.356L111.956 172.15C114.029 173.449 116.338 174.327 118.75 174.733V165.356ZM107.274 167.993L114.33 160.936H103.718C104.387 163.515 105.6 165.92 107.274 167.993ZM100.238 143.748H92.357L88.4508 149.998H97.666C98.2348 147.808 99.1002 145.705 100.238 143.748ZM78.125 168.748C78.125 167.512 77.7584 166.304 77.0717 165.276C76.3849 164.248 75.4088 163.447 74.2668 162.974C73.1247 162.501 71.8681 162.377 70.6557 162.619C69.4433 162.86 68.3297 163.455 67.4556 164.329C66.5815 165.203 65.9863 166.317 65.7451 167.529C65.5039 168.742 65.6277 169.998 66.1008 171.14C66.5738 172.282 67.3749 173.258 68.4027 173.945C69.4305 174.632 70.6389 174.998 71.875 174.998C73.532 174.997 75.1206 174.337 76.2923 173.166C77.4639 171.994 78.123 170.405 78.125 168.748ZM115.625 74.9985C113.771 74.9985 111.958 75.5483 110.417 76.5785C108.875 77.6086 107.673 79.0728 106.964 80.7858C106.254 82.4989 106.068 84.3839 106.43 86.2025C106.792 88.021 107.685 89.6915 108.996 91.0026C110.307 92.3137 111.977 93.2066 113.796 93.5684C115.615 93.9301 117.5 93.7444 119.213 93.0349C120.926 92.3253 122.39 91.1237 123.42 89.582C124.45 88.0403 125 86.2277 125 84.3735C124.997 81.888 124.008 79.5051 122.251 77.7476C120.493 75.99 118.111 75.0014 115.625 74.9985ZM125 129.686V107.811C125 105.739 124.177 103.752 122.712 102.287C121.247 100.822 119.26 99.9985 117.188 99.9985C115.115 99.9985 113.128 100.822 111.663 102.287C110.198 103.752 109.375 105.739 109.375 107.811V124.998C109.375 125.827 109.046 126.622 108.46 127.208C107.874 127.794 107.079 128.123 106.25 128.123H87.443C86.0946 128.127 84.7699 128.478 83.5966 129.143C82.4232 129.807 81.4407 130.762 80.7438 131.916L68.8223 151.786C68.3816 152.517 68.1479 153.353 68.1459 154.206C68.144 155.06 68.374 155.897 68.8113 156.63C71.3847 155.978 74.0986 156.165 76.5586 157.163C76.6737 157.021 76.7808 156.874 76.8793 156.72L87.975 138.967C88.2559 138.518 88.6465 138.147 89.1101 137.89C89.5737 137.633 90.095 137.498 90.625 137.498H105.366C107.993 135.17 111.083 133.425 114.434 132.378C117.785 131.332 121.319 131.007 124.805 131.426C124.935 130.855 125 130.272 125 129.686ZM137.776 146.33L129.42 154.686H140.555C140.31 151.718 139.357 148.853 137.776 146.33ZM140.032 160.936H129.42L136.476 167.993C138.15 165.92 139.363 163.515 140.032 160.936ZM96.875 156.248H84.5445L82.1793 160.033C81.9949 160.328 81.7926 160.61 81.5824 160.885C83.1778 162.847 84.1385 165.248 84.3369 167.769C84.5353 170.289 83.9621 172.811 82.6934 174.998H105.366C102.698 172.657 100.56 169.774 99.096 166.54C97.6317 163.307 96.8746 159.798 96.875 156.248Z" fill="#FDFDFD"/>
</svg>
