<svg width="173" height="188" viewBox="0 0 173 188" fill="none" xmlns="http://www.w3.org/2000/svg">
<path d="M22.1789 0.250086C25.0601 0.241977 27.9143 0.805462 30.5762 1.90792C33.2381 3.01037 35.6549 4.6299 37.6867 6.67274L47.6957 16.6837L57.7066 6.67274C60.7736 3.6059 64.6811 1.5174 68.935 0.671372C73.1889 -0.174661 77.5981 0.259768 81.6052 1.91972C85.6122 3.57967 89.037 6.39059 91.4464 9.997C93.8558 13.6034 95.1417 17.8433 95.1414 22.1806C95.1414 22.2352 95.1379 22.2891 95.1375 22.3438C95.2578 22.3902 95.3752 22.4438 95.4891 22.5044L170.489 63.1294C170.984 63.3974 171.397 63.794 171.685 64.2773C171.973 64.7605 172.125 65.3125 172.125 65.8751V184.625C172.125 185.454 171.796 186.249 171.21 186.835C170.624 187.421 169.829 187.75 169 187.75H19C18.1712 187.75 17.3763 187.421 16.7903 186.835C16.2042 186.249 15.875 185.454 15.875 184.625V62.7501C15.875 62.1698 16.0366 61.6009 16.3417 61.1073C16.6468 60.6136 17.0833 60.2147 17.6023 59.9552L25.1629 56.1747L6.67226 37.6848C3.60568 34.6179 1.51737 30.7105 0.671404 26.4568C-0.174559 22.2031 0.259809 17.794 1.91958 13.7871C3.57936 9.78022 6.39 6.35547 9.99611 3.94591C13.6022 1.53636 17.8418 0.250205 22.1789 0.250086V0.250086ZM29.7726 60.8575L22.125 64.6813V181.5H165.875V67.7364L94.1043 28.8606C93.0416 32.191 91.1945 35.2173 88.7184 37.6848L54.2781 72.1251H62.75C63.5788 72.1251 64.3737 72.4543 64.9597 73.0404C65.5458 73.6264 65.875 74.4213 65.875 75.2501C65.875 76.0789 65.5458 76.8737 64.9597 77.4598C64.3737 78.0458 63.5788 78.3751 62.75 78.3751H31.5C30.6712 78.3751 29.8763 78.0458 29.2903 77.4598C28.7042 76.8737 28.375 76.0789 28.375 75.2501C28.375 74.4213 28.7042 73.6264 29.2903 73.0404C29.8763 72.4543 30.6712 72.1251 31.5 72.1251H41.1129L29.8203 60.8313C29.8031 60.8395 29.7887 60.8497 29.7726 60.8575ZM11.0922 33.2653L47.6957 69.8669L84.2973 33.2653C87.2 30.3173 88.82 26.3415 88.804 22.2042C88.7881 18.067 87.1375 14.1038 84.2121 11.1782C81.2866 8.2527 77.3235 6.60201 73.1862 6.58591C69.049 6.56981 65.0731 8.1896 62.125 11.0923L49.9043 23.313C49.6141 23.6032 49.2696 23.8334 48.8904 23.9904C48.5113 24.1475 48.1049 24.2283 47.6945 24.2283C47.2841 24.2283 46.8777 24.1475 46.4986 23.9904C46.1194 23.8334 45.7749 23.6032 45.4848 23.313L33.264 11.0923C30.3187 8.17611 26.3385 6.54483 22.1937 6.55515C18.0489 6.56548 14.0769 8.21655 11.1461 11.1474C8.21529 14.0781 6.5642 18.0502 6.55388 22.195C6.54356 26.3397 8.17483 30.32 11.091 33.2653H11.0922Z" fill="#FDFDFD"/>
<path d="M35.6604 31.5H38.7854V28.375C38.7854 27.5462 39.1146 26.7513 39.7007 26.1653C40.2867 25.5792 41.0816 25.25 41.9104 25.25H54.4104C55.2392 25.25 56.034 25.5792 56.6201 26.1653C57.2062 26.7513 57.5354 27.5462 57.5354 28.375V31.5H60.6604C61.4892 31.5 62.284 31.8292 62.8701 32.4153C63.4562 33.0013 63.7854 33.7962 63.7854 34.625V47.125C63.7854 47.9538 63.4562 48.7487 62.8701 49.3347C62.284 49.9208 61.4892 50.25 60.6604 50.25H57.5354V53.375C57.5354 54.2038 57.2062 54.9987 56.6201 55.5847C56.034 56.1708 55.2392 56.5 54.4104 56.5H41.9104C41.0816 56.5 40.2867 56.1708 39.7007 55.5847C39.1146 54.9987 38.7854 54.2038 38.7854 53.375V50.25H35.6604C34.8316 50.25 34.0367 49.9208 33.4507 49.3347C32.8646 48.7487 32.5354 47.9538 32.5354 47.125V34.625C32.5354 33.7962 32.8646 33.0013 33.4507 32.4153C34.0367 31.8292 34.8316 31.5 35.6604 31.5ZM38.7854 44H41.9104C42.7392 44 43.534 44.3292 44.1201 44.9153C44.7062 45.5013 45.0354 46.2962 45.0354 47.125V50.25H51.2854V47.125C51.2854 46.2962 51.6146 45.5013 52.2007 44.9153C52.7867 44.3292 53.5816 44 54.4104 44H57.5354V37.75H54.4104C53.5816 37.75 52.7867 37.4208 52.2007 36.8347C51.6146 36.2487 51.2854 35.4538 51.2854 34.625V31.5H45.0354V34.625C45.0354 35.4538 44.7062 36.2487 44.1201 36.8347C43.534 37.4208 42.7392 37.75 41.9104 37.75H38.7854V44Z" fill="#FDFDFD"/>
<path d="M31.5 84.6235C32.3288 84.6235 33.1237 84.9527 33.7097 85.5388C34.2958 86.1248 34.625 86.9197 34.625 87.7485V168.998H55.0547C53.6395 166.558 53.0941 163.709 53.5078 160.918C53.9215 158.127 55.2697 155.559 57.332 153.634C56.3676 151.945 55.871 150.03 55.8936 148.085C55.9162 146.14 56.4571 144.236 57.4606 142.57L69.382 122.701C70.6368 120.623 72.4056 118.903 74.5181 117.707C76.6306 116.512 79.0155 115.88 81.443 115.873H97.125V101.811C97.1244 99.9181 97.5072 98.0447 98.2502 96.3038C98.9933 94.5628 100.081 92.9904 101.448 91.6813C98.6226 89.9475 96.4214 87.3599 95.163 84.2927C93.9046 81.2255 93.6542 77.8376 94.4481 74.6187C95.2419 71.3999 97.0388 68.5168 99.579 66.3864C102.119 64.256 105.271 62.9886 108.579 62.7674C111.887 62.5462 115.179 63.3828 117.981 65.156C120.782 66.9293 122.947 69.5475 124.162 72.632C125.377 75.7166 125.58 79.1077 124.741 82.3151C123.902 85.5225 122.065 88.3801 119.495 90.4747C121.278 91.7789 122.728 93.485 123.728 95.4547C124.728 97.4244 125.249 99.6021 125.25 101.811V123.686C125.25 124.778 125.123 125.866 124.872 126.928C128.882 128.472 132.427 131.024 135.162 134.338C137.898 137.652 139.732 141.615 140.487 145.846C141.243 150.076 140.894 154.43 139.474 158.485C138.055 162.541 135.613 166.162 132.384 168.998H153.375V74.0141L95.391 43.6415C95.0214 43.4546 94.6926 43.1961 94.4237 42.8811C94.1548 42.566 93.9513 42.2007 93.8249 41.8063C93.6985 41.4118 93.6517 40.9962 93.6874 40.5836C93.723 40.1709 93.8404 39.7695 94.0326 39.4026C94.2247 39.0357 94.4879 38.7106 94.8068 38.4464C95.1257 38.1821 95.494 37.9838 95.8902 37.8632C96.2864 37.7425 96.7027 37.7017 97.1147 37.7433C97.5268 37.785 97.9265 37.9081 98.2906 38.1055L157.95 69.3555C158.455 69.6201 158.878 70.018 159.174 70.5059C159.469 70.9938 159.625 71.5532 159.625 72.1235V172.123C159.625 172.952 159.296 173.747 158.71 174.333C158.124 174.919 157.329 175.248 156.5 175.248H31.5C30.6712 175.248 29.8763 174.919 29.2903 174.333C28.7042 173.747 28.375 172.952 28.375 172.123V87.7485C28.375 86.9197 28.7042 86.1248 29.2903 85.5388C29.8763 84.9527 30.6712 84.6235 31.5 84.6235ZM99.9738 140.33C98.3927 142.853 97.4399 145.718 97.1953 148.686H108.33L99.9738 140.33ZM112.75 144.266V131.764C109.591 132.297 106.623 133.635 104.131 135.647L112.75 144.266ZM119 131.764V144.266L127.619 135.647C125.127 133.635 122.159 132.297 119 131.764V131.764ZM125.794 166.15L119 159.356V168.733C121.412 168.327 123.721 167.449 125.794 166.15V166.15ZM112.75 159.356L105.956 166.15C108.029 167.449 110.338 168.327 112.75 168.733V159.356ZM101.274 161.993L108.33 154.936H97.7184C98.3874 157.515 99.5996 159.92 101.274 161.993V161.993ZM94.2383 137.748H86.357L82.4508 143.998H91.666C92.2348 141.808 93.1002 139.705 94.2383 137.748V137.748ZM72.125 162.748C72.125 161.512 71.7584 160.304 71.0717 159.276C70.3849 158.248 69.4088 157.447 68.2668 156.974C67.1247 156.501 65.8681 156.377 64.6557 156.619C63.4433 156.86 62.3297 157.455 61.4556 158.329C60.5815 159.203 59.9862 160.317 59.7451 161.529C59.5039 162.742 59.6277 163.998 60.1008 165.14C60.5738 166.282 61.3749 167.258 62.4027 167.945C63.4305 168.632 64.6389 168.998 65.875 168.998C67.532 168.997 69.1206 168.337 70.2923 167.166C71.4639 165.994 72.123 164.405 72.125 162.748ZM109.625 68.9985C107.771 68.9985 105.958 69.5483 104.417 70.5785C102.875 71.6086 101.673 73.0728 100.964 74.7858C100.254 76.4989 100.068 78.3839 100.43 80.2025C100.792 82.021 101.685 83.6915 102.996 85.0026C104.307 86.3137 105.977 87.2066 107.796 87.5684C109.615 87.9301 111.5 87.7444 113.213 87.0349C114.926 86.3253 116.39 85.1237 117.42 83.582C118.45 82.0403 119 80.2277 119 78.3735C118.997 75.888 118.008 73.5051 116.251 71.7476C114.493 69.99 112.111 69.0014 109.625 68.9985V68.9985ZM119 123.686V101.811C119 99.739 118.177 97.7518 116.712 96.2867C115.247 94.8216 113.26 93.9985 111.188 93.9985C109.115 93.9985 107.128 94.8216 105.663 96.2867C104.198 97.7518 103.375 99.739 103.375 101.811V118.998C103.375 119.827 103.046 120.622 102.46 121.208C101.874 121.794 101.079 122.123 100.25 122.123H81.443C80.0946 122.127 78.7699 122.478 77.5966 123.143C76.4232 123.807 75.4407 124.762 74.7438 125.916L62.8223 145.786C62.3816 146.517 62.1479 147.353 62.1459 148.206C62.144 149.06 62.374 149.897 62.8113 150.63C65.3847 149.978 68.0986 150.165 70.5586 151.163C70.6737 151.021 70.7808 150.874 70.8793 150.72L81.975 132.967C82.2559 132.518 82.6465 132.147 83.1101 131.89C83.5737 131.633 84.095 131.498 84.625 131.498H99.3656C101.993 129.17 105.083 127.425 108.434 126.378C111.785 125.332 115.319 125.007 118.805 125.426C118.935 124.855 119 124.272 119 123.686ZM131.776 140.33L123.42 148.686H134.555C134.31 145.718 133.357 142.853 131.776 140.33V140.33ZM134.032 154.936H123.42L130.476 161.993C132.15 159.92 133.363 157.515 134.032 154.936V154.936ZM90.875 150.248H78.5445L76.1793 154.033C75.9949 154.328 75.7926 154.61 75.5824 154.885C77.1778 156.847 78.1385 159.248 78.3369 161.769C78.5353 164.289 77.9621 166.811 76.6934 168.998H99.3656C96.6977 166.657 94.5602 163.774 93.096 160.54C91.6317 157.307 90.8746 153.798 90.875 150.248Z" fill="#FDFDFD"/>
</svg>
