<svg width="112" height="113" viewBox="0 0 112 113" fill="none" xmlns="http://www.w3.org/2000/svg">
<path fill-rule="evenodd" clip-rule="evenodd" d="M56.7467 0.0463753C70.9347 0.592869 83.7194 7.52438 93.8128 17.5104C103.969 27.5581 110.995 40.3167 111.863 54.5765C112.787 69.766 109.112 85.4268 98.6166 96.4463C87.9046 107.694 72.2122 113.886 56.7467 112.447C42.346 111.108 31.9293 99.8389 22.0027 89.3205C12.4833 79.2336 3.11068 68.4114 2.13163 54.5765C1.08941 39.8488 6.26259 24.9726 16.7108 14.5406C27.152 4.1157 42.0032 -0.52152 56.7467 0.0463753Z" fill="#F3FAFF"/>
<path d="M77.7306 42.1124H70.9639V35.3457H63.8473V42.1124H57.0806V49.229H63.8473V55.9957H70.9639V49.229H77.7306V42.1124Z" fill="#FDFDFD" stroke="#108DE7" stroke-width="2.0736" stroke-miterlimit="10" stroke-linecap="round" stroke-linejoin="round"/>
<path d="M38.8808 28.9291C39.1141 28.8124 40.1641 28.5791 41.2141 28.2291C42.2641 27.8791 43.7808 29.0457 44.4808 30.7957L48.3308 40.2458C49.0308 41.9958 49.0308 43.8624 48.3308 44.3291C47.6308 44.7958 45.5308 45.0291 43.6641 44.9124C43.6641 44.9124 41.4474 44.6791 43.1974 49.1124C43.1974 49.1124 43.8974 50.5124 44.8308 52.2624C44.8308 52.2624 46.6974 55.6458 48.9141 58.9124C51.1308 62.1791 53.8141 64.9791 53.8141 64.9791C55.0975 66.3791 56.1475 67.5457 56.1475 67.5457C59.7641 70.6957 60.3475 68.4791 60.3475 68.4791C60.8141 66.6124 61.7474 64.7457 62.4474 64.2791C63.1474 63.8124 64.8974 64.3957 66.2974 65.6791L73.8808 72.5624C75.2808 73.8457 75.8641 75.5957 75.1641 76.5291C74.4641 77.4624 73.8808 78.2791 73.7641 78.5124C73.6475 78.7457 72.3641 79.2124 70.9641 79.7957C69.5641 80.2624 67.1141 80.8457 65.4808 81.1957C63.8475 81.4291 61.3974 80.7291 59.8808 79.5624C59.8808 79.5624 59.6474 79.4458 58.2474 78.1624C53.3474 73.9624 48.3308 68.4791 43.8975 62.1791C39.4641 55.7624 36.0808 49.3457 33.8641 43.2791C33.1641 41.4124 33.1641 41.1791 33.1641 41.1791C32.5808 39.4291 32.8141 36.7457 33.5141 35.3457C34.3308 33.9457 35.7308 31.9624 36.7808 30.9124C37.5974 29.9791 38.6474 29.0457 38.8808 28.9291Z" fill="#FDFDFD"/>
<path d="M38.8808 28.9291C39.1141 28.8124 40.1641 28.5791 41.2141 28.2291C42.2641 27.8791 43.7808 29.0457 44.4808 30.7957L48.3308 40.2458C49.0308 41.9958 49.0308 43.8624 48.3308 44.3291C47.6308 44.7958 45.5308 45.0291 43.6641 44.9124C43.6641 44.9124 41.4474 44.6791 43.1974 49.1124C43.1974 49.1124 43.8974 50.5124 44.8308 52.2624C44.8308 52.2624 46.6974 55.6458 48.9141 58.9124C51.1308 62.1791 53.8141 64.9791 53.8141 64.9791C55.0975 66.3791 56.1475 67.5457 56.1475 67.5457C59.7641 70.6957 60.3475 68.4791 60.3475 68.4791C60.8141 66.6124 61.7474 64.7457 62.4474 64.2791C63.1474 63.8124 64.8974 64.3957 66.2974 65.6791L73.8808 72.5624C75.2808 73.8458 75.8641 75.5957 75.1641 76.5291C74.4641 77.4624 73.8808 78.2791 73.7641 78.5124C73.6475 78.7457 72.3641 79.2124 70.9641 79.7957C69.5641 80.2624 67.1141 80.8457 65.4808 81.1957C63.8475 81.4291 61.3974 80.7291 59.8808 79.5624C59.8808 79.5624 59.6474 79.4458 58.2474 78.1624C53.3474 73.9624 48.3308 68.4791 43.8975 62.1791C39.4641 55.7624 36.0808 49.3457 33.8641 43.2791C33.1641 41.4124 33.1641 41.1791 33.1641 41.1791C32.5808 39.4291 32.8141 36.7457 33.5141 35.3457C34.3308 33.9457 35.7308 31.9624 36.7808 30.9124C37.5974 29.9791 38.6474 29.0457 38.8808 28.9291Z" stroke="#161522" stroke-width="2.592" stroke-miterlimit="10" stroke-linecap="round" stroke-linejoin="round"/>
</svg>
