<svg width="24" height="23" viewBox="0 0 24 23" fill="none" xmlns="http://www.w3.org/2000/svg">
<path d="M23.9173 7.09023C23.9173 13.4212 13.0905 22.3176 12.629 22.6902C12.4514 22.8345 12.2295 22.9132 12.0007 22.9132C11.7718 22.9132 11.5499 22.8345 11.3723 22.6902L12.293 1.99311C12.8753 1.46173 13.5441 1.03201 14.2714 0.723006C15.1238 0.360913 16.0395 0.171798 16.9656 0.166646M23.9173 7.09023C23.9113 5.25095 23.176 3.48915 21.8728 2.19122C20.5696 0.893288 18.8049 0.165202 16.9656 0.166646M23.9173 7.09023H22.9173C22.9173 7.09074 22.9173 7.09125 22.9173 7.09176M23.9173 7.09023L22.9173 7.0935C22.9173 7.09292 22.9173 7.09234 22.9173 7.09176M16.9656 0.166646L16.9664 1.16665C16.9671 1.16664 16.9679 1.16664 16.9687 1.16664M16.9656 0.166646L16.9711 1.16663C16.9703 1.16663 16.9695 1.16664 16.9687 1.16664M16.9687 1.16664C16.176 1.17137 15.3921 1.33342 14.6624 1.64339C13.9321 1.95368 13.2706 2.40602 12.7165 2.97411L11.9977 3.71114L11.2819 2.97116C10.4605 2.122 9.40426 1.5374 8.24853 1.29224C7.0928 1.04708 5.8902 1.15253 4.79477 1.59508C3.69935 2.03763 2.76098 2.79713 2.09988 3.77629C1.43886 4.75532 1.08513 5.90937 1.08398 7.09065M16.9687 1.16664C18.5424 1.16604 20.0521 1.78924 21.1672 2.89976C22.2824 4.01043 22.9117 5.5179 22.9173 7.09176M1.08398 7.09065C1.08411 8.41078 1.65788 9.96875 2.64384 11.6375C3.61935 13.2886 4.93952 14.9505 6.29735 16.4545C9.01219 19.4616 11.7894 21.7417 12.0006 21.9122L12.0006 21.9123M1.08398 7.09065C1.08398 7.09051 1.08398 7.09037 1.08398 7.09023H0.0839844L1.08398 7.09112C1.08398 7.09096 1.08398 7.09081 1.08398 7.09065ZM22.9173 7.09176C22.9169 8.41164 22.3432 9.96922 21.3575 11.6375C20.382 13.2886 19.0618 14.9505 17.704 16.4545C14.9891 19.4616 12.2119 21.7417 12.0007 21.9122L12.0006 21.9123M12.0006 21.9123L12.0003 21.9126L11.9985 21.914C11.9988 21.9138 11.9991 21.9136 11.9994 21.9135C11.9995 21.9135 11.9995 21.9134 11.9996 21.9134C11.9999 21.9133 12.0003 21.9132 12.0007 21.9132C12.001 21.9132 12.0013 21.9133 12.0016 21.9134C12.0017 21.9134 12.0017 21.9134 12.0017 21.9134C12.0021 21.9135 12.0024 21.9137 12.0028 21.914L12.001 21.9126L12.0006 21.9123Z" stroke="#108DE7" stroke-width="2"/>
</svg>
