<svg width="46" height="48" viewBox="0 0 46 48" fill="none" xmlns="http://www.w3.org/2000/svg">
<path d="M23 46.2657C35.1503 46.2657 45 36.3298 45 24.0733C45 11.8167 35.1503 1.88086 23 1.88086C10.8497 1.88086 1 11.8167 1 24.0733C1 36.3298 10.8497 46.2657 23 46.2657Z" stroke="#161522" stroke-width="2"/>
<path d="M23.0001 15.6002C24.4001 15.6002 25.6001 16.7099 25.6001 18.223C25.6001 19.6352 24.4001 20.8457 23.0001 20.8457C21.6001 20.8457 20.4001 19.6352 20.4001 18.223C20.4001 16.8107 21.6001 15.6002 23.0001 15.6002ZM23.0001 24.4772C26.4001 24.4772 29.2001 21.6527 29.2001 18.223C29.2001 14.7932 26.4001 11.9688 23.0001 11.9688C19.6001 11.9688 16.8001 14.7932 16.8001 18.223C16.7001 21.6527 19.5001 24.4772 23.0001 24.4772ZM25.5001 29.5209C26.8001 29.2183 28.0001 28.7139 29.1001 28.0078C30.0001 27.5034 30.2001 26.2929 29.7001 25.4859C29.2001 24.679 28.0001 24.3763 27.2001 24.8807C24.6001 26.4947 21.4001 26.4947 18.8001 24.8807C17.9001 24.3763 16.8001 24.5781 16.3001 25.4859C15.8001 26.2929 16.0001 27.5034 16.9001 28.0078C18.0001 28.7139 19.3001 29.2183 20.5001 29.5209L17.0001 33.0515C16.3001 33.7577 16.3001 34.9682 17.0001 35.6743C17.4001 36.0778 17.8001 36.1787 18.3001 36.1787C18.8001 36.1787 19.2001 35.9769 19.6001 35.6743L23.0001 32.2445L26.4001 35.6743C27.1001 36.3804 28.3001 36.3804 29.0001 35.6743C29.7001 34.9682 29.7001 33.7577 29.0001 33.0515L25.5001 29.5209Z" fill="#161522"/>
</svg>
