<svg width="46" height="48" viewBox="0 0 46 48" fill="none" xmlns="http://www.w3.org/2000/svg">
<path d="M23 46.2559C35.1503 46.2559 45 36.32 45 24.0635C45 11.807 35.1503 1.87109 23 1.87109C10.8497 1.87109 1 11.807 1 24.0635C1 36.32 10.8497 46.2559 23 46.2559Z" stroke="#161522" stroke-width="2"/>
<path d="M23.7 32.0326C23.7 32.0326 24.2 32.0326 24.4 31.73C24.6 31.5282 24.6 31.1247 24.6 31.1247C24.6 31.1247 24.6 29.1072 25.5 28.8046C26.4 28.502 27.6 30.7212 28.8 31.5282C29.7 32.1335 30.5 32.0326 30.5 32.0326H33.8C33.8 32.0326 35.5 31.9317 34.7 30.5195C34.6 30.4186 34.2 29.5107 32.2 27.695C30.1 25.7784 30.4 26.081 32.9 22.7521C34.4 20.7346 35 19.5242 34.9 18.9189C34.7 18.4145 33.6 18.5154 33.6 18.5154H29.8C29.8 18.5154 29.5 18.5154 29.3 18.6163C29.1 18.7172 29 19.0198 29 19.0198C29 19.0198 28.4 20.6338 27.6 21.9451C25.9 24.7696 25.3 24.8705 25 24.7696C24.4 24.3661 24.5 23.1556 24.5 22.2478C24.5 19.5241 24.9 18.4145 23.7 18.1119C23.3 18.011 23 17.9102 21.9 17.9102C20.6 17.9102 19.4 17.9102 18.8 18.2128C18.4 18.4145 18 18.9189 18.2 18.9189C18.4 18.9189 19 19.0198 19.3 19.4233C19.7 19.9276 19.7 21.1381 19.7 21.1381C19.7 21.1381 19.9 24.3661 19.2 24.7696C18.7 25.0723 18 24.467 16.5 21.9451C15.7 20.6338 15.2 19.2215 15.2 19.2215C15.2 19.2215 15.1 18.9189 14.9 18.818C14.7 18.6163 14.3 18.6163 14.3 18.6163H10.7C10.7 18.6163 10.2 18.6163 10 18.818C9.80002 19.0198 10 19.4233 10 19.4233C10 19.4233 12.8 25.8792 16 29.2081C18.9 32.2344 22.2 32.0326 22.2 32.0326H23.7Z" fill="#161522"/>
</svg>
