<svg width="110" height="110" viewBox="0 0 110 110" fill="none" xmlns="http://www.w3.org/2000/svg">
<path fill-rule="evenodd" clip-rule="evenodd" d="M52.4674 0.18591C66.5929 1.32702 77.4721 11.1933 87.6209 21.0843C97.9599 31.1604 109.495 41.8091 109.981 56.2378C110.478 70.974 101.204 84.1738 90.0729 93.8434C79.7179 102.839 66.1756 106.678 52.4674 106.2C39.2727 105.739 26.931 100.441 17.3976 91.3076C7.63729 81.9566 1.42342 69.7095 0.319166 56.2378C-0.890309 41.4825 1.05065 25.7447 11.135 14.9054C21.491 3.77415 37.313 -1.03832 52.4674 0.18591Z" fill="#F3FAFF"/>
<path d="M76.7003 76.7023C76.7003 64.919 75.067 55.119 59.4337 52.9023C57.6837 55.2357 55.2337 56.2857 52.4337 56.2857C49.6337 56.2857 47.1837 55.2357 45.4337 52.9023C29.8003 55.0023 28.167 64.8023 28.167 76.7023" fill="#FDFDFD"/>
<path d="M76.7003 76.7023C76.7003 64.919 75.067 55.119 59.4337 52.9023C57.6837 55.2357 55.2337 56.2857 52.4337 56.2857C49.6337 56.2857 47.1837 55.2357 45.4337 52.9023C29.8003 55.0023 28.167 64.8023 28.167 76.7023" stroke="#161522" stroke-width="2.592" stroke-miterlimit="10" stroke-linecap="round" stroke-linejoin="round"/>
<path d="M62.1167 36.8021C62.1167 43.5688 57.3334 49.4021 52.55 49.4021C47.7667 49.4021 43.3334 43.4521 42.9834 36.8021C42.6334 30.0355 46.6 24.6688 52.55 24.6688C58.3834 24.5522 62.1167 30.0355 62.1167 36.8021Z" fill="#FDFDFD"/>
<path d="M62.1167 36.8021C62.1167 43.5688 57.3334 49.4021 52.55 49.4021C47.7667 49.4021 43.3334 43.4521 42.9834 36.8021C42.6334 30.0355 46.6 24.6688 52.55 24.6688C58.3834 24.5522 62.1167 30.0355 62.1167 36.8021Z" stroke="#161522" stroke-width="2.592" stroke-miterlimit="10" stroke-linecap="round" stroke-linejoin="round"/>
<path d="M37.3833 65.2686C35.75 69.5852 35.75 76.1186 35.75 80.5519C40.0667 82.3019 46.0167 83.8186 52.4333 83.8186C58.9667 83.8186 64.8 82.3019 69.1167 80.5519C69.1167 76.4686 69.1167 70.6352 67.95 66.5519" fill="#FDFDFD"/>
<path d="M37.3833 65.2686C35.75 69.5852 35.75 76.1186 35.75 80.5519C40.0667 82.3019 46.0167 83.8186 52.4333 83.8186C58.9667 83.8186 64.8 82.3019 69.1167 80.5519C69.1167 76.4686 69.1167 70.6352 67.95 66.5519" stroke="#161522" stroke-width="2.592" stroke-miterlimit="10" stroke-linecap="round" stroke-linejoin="round"/>
<path d="M28.2832 76.7021C28.2832 77.5188 31.7832 79.5021 35.7499 79.5021L28.2832 76.7021Z" fill="#FDFDFD"/>
<path d="M28.2832 76.7021C28.2832 77.5188 31.7832 79.5021 35.7499 79.5021" stroke="#161522" stroke-width="2.592" stroke-miterlimit="10" stroke-linecap="round" stroke-linejoin="round"/>
<path d="M76.7001 76.7021C76.7001 77.5188 73.2001 79.5021 69.2334 79.5021L76.7001 76.7021Z" fill="#FDFDFD"/>
<path d="M76.7001 76.7021C76.7001 77.5188 73.2001 79.5021 69.2334 79.5021" stroke="#108DE7" stroke-width="2.592" stroke-miterlimit="10" stroke-linecap="round" stroke-linejoin="round"/>
<path d="M81.2499 63.9854H64.4499C63.9833 63.9854 63.5166 64.452 63.5166 64.9187V84.9853C63.5166 85.452 63.9833 85.9187 64.4499 85.9187H78.0999H81.2499C81.7166 85.9187 82.1833 85.452 82.1833 84.9853V81.8354V64.9187C82.1833 64.452 81.7166 63.9854 81.2499 63.9854Z" fill="#FDFDFD" stroke="#108DE7" stroke-width="2.0736" stroke-miterlimit="10" stroke-linecap="round" stroke-linejoin="round"/>
<path d="M75.184 70.752C73.9007 70.752 72.734 71.802 72.734 73.202C72.734 71.9186 71.684 70.752 70.284 70.752C69.0007 70.752 67.834 71.802 67.834 73.202C67.834 74.4853 68.4173 75.6519 69.934 76.9353C70.984 77.9853 72.734 79.2686 72.734 79.2686C72.734 79.2686 74.6007 77.7519 75.534 76.9353C76.934 75.6519 77.634 74.4853 77.634 73.202C77.634 71.802 76.584 70.752 75.184 70.752Z" fill="#FDFDFD" stroke="#108DE7" stroke-width="1.5552" stroke-miterlimit="10" stroke-linejoin="round"/>
<path d="M74.6001 62.7024V61.8857C74.6001 60.9524 73.7834 60.1357 72.8501 60.1357C71.9167 60.1357 71.1001 60.9524 71.1001 61.8857V62.7024H67.4834V65.3857H78.2167V62.7024H74.6001Z" fill="#FDFDFD" stroke="#108DE7" stroke-width="1.5552" stroke-miterlimit="10" stroke-linecap="round" stroke-linejoin="round"/>
</svg>
