<svg width="46" height="47" viewBox="0 0 46 47" fill="none" xmlns="http://www.w3.org/2000/svg">
<path d="M23 45.3848C35.1503 45.3848 45 35.449 45 23.1924C45 10.9359 35.1503 1 23 1C10.8497 1 1 10.9359 1 23.1924C1 35.449 10.8497 45.3848 23 45.3848Z" stroke="#161522" stroke-width="2"/>
<path d="M23.7 31.1615C23.7 31.1615 24.2 31.1615 24.4 30.8589C24.6 30.6572 24.6 30.2537 24.6 30.2537C24.6 30.2537 24.6 28.2362 25.5 27.9335C26.4 27.6309 27.6 29.8502 28.8 30.6572C29.7 31.2624 30.5 31.1615 30.5 31.1615H33.8C33.8 31.1615 35.5 31.0607 34.7 29.6484C34.6 29.5475 34.2 28.6397 32.2 26.8239C30.1 24.9073 30.4 25.2099 32.9 21.8811C34.4 19.8636 35 18.6531 34.9 18.0478C34.7 17.5435 33.6 17.6443 33.6 17.6443H29.8C29.8 17.6443 29.5 17.6443 29.3 17.7452C29.1 17.8461 29 18.1487 29 18.1487C29 18.1487 28.4 19.7627 27.6 21.0741C25.9 23.8986 25.3 23.9994 25 23.8986C24.4 23.4951 24.5 22.2846 24.5 21.3767C24.5 18.6531 24.9 17.5435 23.7 17.2408C23.3 17.14 23 17.0391 21.9 17.0391C20.6 17.0391 19.4 17.0391 18.8 17.3417C18.4 17.5435 18 18.0478 18.2 18.0478C18.4 18.0478 19 18.1487 19.3 18.5522C19.7 19.0566 19.7 20.2671 19.7 20.2671C19.7 20.2671 19.9 23.4951 19.2 23.8986C18.7 24.2012 18 23.5959 16.5 21.0741C15.7 19.7627 15.2 18.3505 15.2 18.3505C15.2 18.3505 15.1 18.0478 14.9 17.947C14.7 17.7452 14.3 17.7452 14.3 17.7452H10.7C10.7 17.7452 10.2 17.7452 10 17.947C9.80002 18.1487 10 18.5522 10 18.5522C10 18.5522 12.8 25.0082 16 28.337C18.9 31.3633 22.2 31.1615 22.2 31.1615H23.7Z" fill="#161522"/>
</svg>
