<svg width="26" height="22" viewBox="0 0 26 22" fill="none" xmlns="http://www.w3.org/2000/svg">
<mask id="path-1-outside-1" maskUnits="userSpaceOnUse" x="0" y="0" width="26" height="22" fill="black">
<rect fill="white" width="26" height="22"/>
<path fill-rule="evenodd" clip-rule="evenodd" d="M21.8 2H4.2C2.99 2 2.011 2.99 2.011 4.2L2 17.4C2 18.61 2.99 19.6 4.2 19.6H21.8C23.01 19.6 24 18.61 24 17.4V4.2C24 2.99 23.01 2 21.8 2ZM21.8 6.4L13 11.9L4.2 6.4V4.2L13 9.7L21.8 4.2V6.4Z"/>
</mask>
<path d="M2.011 4.2L4.011 4.20167V4.2H2.011ZM2 17.4L0 17.3983V17.4H2ZM21.8 6.4L22.86 8.096L23.8 7.5085V6.4H21.8ZM13 11.9L11.94 13.596L13 14.2585L14.06 13.596L13 11.9ZM4.2 6.4H2.2V7.5085L3.14 8.096L4.2 6.4ZM4.2 4.2L5.26 2.504L2.2 0.591505V4.2H4.2ZM13 9.7L11.94 11.396L13 12.0585L14.06 11.396L13 9.7ZM21.8 4.2H23.8V0.591505L20.74 2.504L21.8 4.2ZM21.8 0H4.2V4H21.8V0ZM4.2 0C1.8724 0 0.011 1.8985 0.011 4.2H4.011C4.011 4.0815 4.1076 4 4.2 4V0ZM0.0110008 4.19833L7.15256e-07 17.3983L4 17.4017L4.011 4.20167L0.0110008 4.19833ZM0 17.4C0 19.7146 1.88543 21.6 4.2 21.6V17.6C4.15122 17.6 4.10278 17.5819 4.06046 17.5395C4.01815 17.4972 4 17.4488 4 17.4H0ZM4.2 21.6H21.8V17.6H4.2V21.6ZM21.8 21.6C24.1146 21.6 26 19.7146 26 17.4H22C22 17.4488 21.9819 17.4972 21.9395 17.5395C21.8972 17.5819 21.8488 17.6 21.8 17.6V21.6ZM26 17.4V4.2H22V17.4H26ZM26 4.2C26 1.88543 24.1146 0 21.8 0V4C21.8488 4 21.8972 4.01815 21.9395 4.06046C21.9819 4.10278 22 4.15122 22 4.2H26ZM20.74 4.704L11.94 10.204L14.06 13.596L22.86 8.096L20.74 4.704ZM14.06 10.204L5.26 4.704L3.14 8.096L11.94 13.596L14.06 10.204ZM6.2 6.4V4.2H2.2V6.4H6.2ZM3.14 5.896L11.94 11.396L14.06 8.004L5.26 2.504L3.14 5.896ZM14.06 11.396L22.86 5.896L20.74 2.504L11.94 8.004L14.06 11.396ZM19.8 4.2V6.4H23.8V4.2H19.8Z" fill="#108DE7" mask="url(#path-1-outside-1)"/>
</svg>
