<svg width="20" height="20" viewBox="0 0 20 20" fill="none" xmlns="http://www.w3.org/2000/svg">
<circle cx="10" cy="10" r="9.5" stroke="#108DE7"/>
<path d="M6.05212 11.2863C5.71613 11.2863 5.42812 11.1951 5.18812 11.0127C4.94812 10.8207 4.82812 10.5807 4.82812 10.2927C4.82812 10.0143 4.94812 9.78388 5.18812 9.60148C5.42812 9.40948 5.71613 9.31348 6.05212 9.31348C6.38812 9.31348 6.67012 9.40468 6.89812 9.58708C7.12612 9.76948 7.24012 10.0047 7.24012 10.2927C7.24012 10.5807 7.12013 10.8207 6.88013 11.0127C6.65213 11.1951 6.37612 11.2863 6.05212 11.2863ZM10.1303 11.2863C9.79425 11.2863 9.50625 11.1951 9.26624 11.0127C9.02625 10.8207 8.90625 10.5807 8.90625 10.2927C8.90625 10.0143 9.02625 9.78388 9.26624 9.60148C9.50625 9.40948 9.79425 9.31348 10.1303 9.31348C10.4663 9.31348 10.7483 9.40468 10.9763 9.58708C11.2043 9.76948 11.3183 10.0047 11.3183 10.2927C11.3183 10.5807 11.1983 10.8207 10.9583 11.0127C10.7303 11.1951 10.4543 11.2863 10.1303 11.2863ZM14.2084 11.2863C13.8724 11.2863 13.5844 11.1951 13.3444 11.0127C13.1044 10.8207 12.9844 10.5807 12.9844 10.2927C12.9844 10.0143 13.1044 9.78388 13.3444 9.60148C13.5844 9.40948 13.8724 9.31348 14.2084 9.31348C14.5444 9.31348 14.8264 9.40468 15.0544 9.58708C15.2824 9.76948 15.3964 10.0047 15.3964 10.2927C15.3964 10.5807 15.2764 10.8207 15.0364 11.0127C14.8084 11.1951 14.5324 11.2863 14.2084 11.2863Z" fill="#108DE7"/>
</svg>
