<svg width="60" height="60" viewBox="0 0 60 60" fill="none" xmlns="http://www.w3.org/2000/svg">
<path d="M50.6 49.6998C50.6 39.5998 49.3 31.1998 35.8 29.2998C34.3 31.2998 32.2 32.1998 29.8 32.1998C27.4 32.1998 25.3 31.2998 23.8 29.2998C10.4 31.0998 9 39.4998 9 49.6998" fill="#F3FAFF"/>
<path d="M50.6 49.6998C50.6 39.5998 49.3 31.1998 35.8 29.2998C34.3 31.2998 32.2 32.1998 29.8 32.1998C27.4 32.1998 25.3 31.2998 23.8 29.2998C10.4 31.0998 9 39.4998 9 49.6998" stroke="#161522" stroke-width="1.5" stroke-miterlimit="10" stroke-linecap="round" stroke-linejoin="round"/>
<path d="M38.1 15.4C38.1 21.2 34 26.2 29.9 26.2C25.8 26.2 22 21.1 21.7 15.4C21.4 9.59999 24.8 5 29.9 5C35 5 38.1 9.69999 38.1 15.4Z" fill="#F3FAFF"/>
<path d="M38.1 15.4C38.1 21.2 34 26.2 29.9 26.2C25.8 26.2 22 21.1 21.7 15.4C21.4 9.59999 24.8 5 29.9 5C35 5 38.1 9.69999 38.1 15.4Z" stroke="#161522" stroke-width="1.5" stroke-miterlimit="10" stroke-linecap="round" stroke-linejoin="round"/>
<path d="M16.9996 39.9004C15.5996 43.6004 15.5996 49.2004 15.5996 53.0004C19.2996 54.5004 24.3996 55.8004 29.8996 55.8004C35.4996 55.8004 40.4996 54.5004 44.1996 53.0004C44.1996 49.5004 44.1996 44.5004 43.1996 41.0004" fill="#F3FAFF"/>
<path d="M16.9996 39.9004C15.5996 43.6004 15.5996 49.2004 15.5996 53.0004C19.2996 54.5004 24.3996 55.8004 29.8996 55.8004C35.4996 55.8004 40.4996 54.5004 44.1996 53.0004C44.1996 49.5004 44.1996 44.5004 43.1996 41.0004" stroke="#161522" stroke-width="1.5" stroke-miterlimit="10" stroke-linecap="round" stroke-linejoin="round"/>
<path d="M9.09961 49.7002C9.09961 50.4002 12.0996 52.1002 15.4996 52.1002L9.09961 49.7002Z" fill="#F3FAFF"/>
<path d="M9.09961 49.7002C9.09961 50.4002 12.0996 52.1002 15.4996 52.1002" stroke="#161522" stroke-width="1.5" stroke-miterlimit="10" stroke-linecap="round" stroke-linejoin="round"/>
<path d="M50.6002 49.7002C50.6002 50.4002 47.6002 52.1002 44.2002 52.1002L50.6002 49.7002Z" fill="#F3FAFF"/>
<path d="M50.6002 49.7002C50.6002 50.4002 47.6002 52.1002 44.2002 52.1002" stroke="#161522" stroke-width="1.5" stroke-miterlimit="10" stroke-linecap="round" stroke-linejoin="round"/>
<path d="M33.0002 38.5C31.3002 38.5 29.9002 39.9 29.9002 41.6C29.9002 39.9 28.5002 38.5 26.8002 38.5C25.1002 38.5 23.7002 39.9 23.7002 41.6C23.7002 43.3 24.5002 44.7 26.3002 46.4C27.7002 47.7 29.8002 49.4 29.8002 49.4C29.8002 49.4 32.3002 47.5 33.4002 46.4C35.2002 44.8 36.0002 43.3 36.0002 41.6C36.1002 39.8 34.7002 38.5 33.0002 38.5Z" fill="#F3FAFF" stroke="#108DE7" stroke-width="2.0736" stroke-miterlimit="10" stroke-linecap="round" stroke-linejoin="round"/>
</svg>
