<svg width="60" height="60" viewBox="0 0 60 60" fill="none" xmlns="http://www.w3.org/2000/svg">
<path d="M50.6 49.6012C50.6 39.5012 49.3 31.1012 35.8 29.2012C34.3 31.2012 32.2 32.1012 29.8 32.1012C27.4 32.1012 25.3 31.2012 23.8 29.2012C10.4 31.0012 9 39.4012 9 49.6012" fill="#F3FAFF"/>
<path d="M50.6 49.6012C50.6 39.5012 49.3 31.1012 35.8 29.2012C34.3 31.2012 32.2 32.1012 29.8 32.1012C27.4 32.1012 25.3 31.2012 23.8 29.2012C10.4 31.0012 9 39.4012 9 49.6012" stroke="#161522" stroke-width="1.5" stroke-miterlimit="10" stroke-linecap="round" stroke-linejoin="round"/>
<path d="M38.1 15.4016C38.1 21.2016 34 26.2016 29.9 26.2016C25.8 26.2016 22 21.1016 21.7 15.4016C21.4 9.60159 24.8 5.00157 29.9 5.00157C34.9 4.90157 38.1 9.60159 38.1 15.4016Z" fill="#F3FAFF"/>
<path d="M38.1 15.4016C38.1 21.2016 34 26.2016 29.9 26.2016C25.8 26.2016 22 21.1016 21.7 15.4016C21.4 9.60159 24.8 5.00157 29.9 5.00157C34.9 4.90157 38.1 9.60159 38.1 15.4016Z" stroke="#161522" stroke-width="1.5" stroke-miterlimit="10" stroke-linecap="round" stroke-linejoin="round"/>
<path d="M16.9 39.8018C15.5 43.5018 15.5 49.1018 15.5 52.9018C19.2 54.4018 24.3 55.7018 29.8 55.7018C35.4 55.7018 40.4 54.4018 44.1 52.9018C44.1 49.4018 44.1 44.4018 43.1 40.9018" fill="#F3FAFF"/>
<path d="M16.9 39.8018C15.5 43.5018 15.5 49.1018 15.5 52.9018C19.2 54.4018 24.3 55.7018 29.8 55.7018C35.4 55.7018 40.4 54.4018 44.1 52.9018C44.1 49.4018 44.1 44.4018 43.1 40.9018" stroke="#161522" stroke-width="1.5" stroke-miterlimit="10" stroke-linecap="round" stroke-linejoin="round"/>
<path d="M9.09961 49.6016C9.09961 50.3016 12.0996 52.0016 15.4996 52.0016L9.09961 49.6016Z" fill="#F3FAFF"/>
<path d="M9.09961 49.6016C9.09961 50.3016 12.0996 52.0016 15.4996 52.0016" stroke="#161522" stroke-width="1.5" stroke-miterlimit="10" stroke-linecap="round" stroke-linejoin="round"/>
<path d="M50.6002 49.6016C50.6002 50.3016 47.6002 52.0016 44.2002 52.0016L50.6002 49.6016Z" fill="#F3FAFF"/>
<path d="M50.6002 49.6016C50.6002 50.3016 47.6002 52.0016 44.2002 52.0016" stroke="#161522" stroke-width="1.5" stroke-miterlimit="10" stroke-linecap="round" stroke-linejoin="round"/>
<path d="M35.2998 42.0017H31.6998V38.3018H27.8998V42.0017H24.2998V45.7018H27.8998V49.4018H31.6998V45.7018H35.2998V42.0017Z" fill="#F3FAFF" stroke="#108DE7" stroke-width="1.5" stroke-miterlimit="10" stroke-linecap="round" stroke-linejoin="round"/>
</svg>
