<svg width="24" height="23" viewBox="0 0 24 23" fill="none" xmlns="http://www.w3.org/2000/svg">
<path d="M23.9168 7.09023C23.9168 13.4212 13.09 22.3176 12.6285 22.6902C12.4509 22.8345 12.229 22.9132 12.0002 22.9132C11.7713 22.9132 11.5495 22.8345 11.3718 22.6902L12.2925 1.99311C12.8748 1.46173 13.5436 1.03201 14.2709 0.723006C15.1233 0.360913 16.039 0.171798 16.9651 0.166646M23.9168 7.09023C23.9108 5.25095 23.1756 3.48915 21.8723 2.19122C20.5691 0.893288 18.8044 0.165202 16.9651 0.166646M23.9168 7.09023H22.9168C22.9168 7.09074 22.9168 7.09125 22.9168 7.09176M23.9168 7.09023L22.9168 7.0935C22.9168 7.09292 22.9168 7.09234 22.9168 7.09176M16.9651 0.166646L16.9659 1.16665C16.9667 1.16664 16.9674 1.16664 16.9682 1.16664M16.9651 0.166646L16.9706 1.16663C16.9698 1.16663 16.969 1.16664 16.9682 1.16664M16.9682 1.16664C16.1755 1.17137 15.3916 1.33342 14.662 1.64339C13.9316 1.95368 13.2701 2.40602 12.716 2.97411L11.9972 3.71114L11.2814 2.97116C10.46 2.122 9.40377 1.5374 8.24804 1.29224C7.09231 1.04708 5.88971 1.15253 4.79428 1.59508C3.69886 2.03763 2.76049 2.79713 2.09939 3.77629C1.43837 4.75532 1.08464 5.90937 1.0835 7.09065M16.9682 1.16664C18.5419 1.16604 20.0516 1.78924 21.1667 2.89976C22.2819 4.01043 22.9112 5.5179 22.9168 7.09176M1.0835 7.09065C1.08362 8.41078 1.65739 9.96875 2.64336 11.6375C3.61886 13.2886 4.93903 14.9505 6.29686 16.4545C9.0117 19.4616 11.7889 21.7417 12.0001 21.9122L12.0002 21.9123M1.0835 7.09065C1.0835 7.09051 1.0835 7.09037 1.0835 7.09023H0.0834961L1.0835 7.09112C1.0835 7.09096 1.0835 7.09081 1.0835 7.09065ZM22.9168 7.09176C22.9164 8.41164 22.3427 9.96922 21.357 11.6375C20.3815 13.2886 19.0613 14.9505 17.7035 16.4545C14.9886 19.4616 12.2114 21.7417 12.0002 21.9122L12.0002 21.9123M12.0002 21.9123L11.9998 21.9126L11.9981 21.914C11.9983 21.9138 11.9986 21.9136 11.9989 21.9135C11.999 21.9135 11.999 21.9134 11.9991 21.9134C11.9995 21.9133 11.9998 21.9132 12.0002 21.9132C12.0005 21.9132 12.0008 21.9133 12.0012 21.9134C12.0012 21.9134 12.0012 21.9134 12.0012 21.9134C12.0016 21.9135 12.0019 21.9137 12.0023 21.914L12.0006 21.9126L12.0002 21.9123Z" stroke="#161522" stroke-width="2"/>
</svg>
