<svg width="90" height="18" viewBox="0 0 90 18" fill="none" xmlns="http://www.w3.org/2000/svg">
<path d="M3.336 0.991999H14.976V17H11.28V4.112H6.936V9.608C6.936 12.728 6.4 14.832 5.328 15.92C4.48 16.768 3.28 17.192 1.728 17.192C1.216 17.192 0.72 17.128 0.24 17V13.688C0.496 13.784 0.8 13.832 1.152 13.832C1.776 13.832 2.264 13.656 2.616 13.304C3.096 12.824 3.336 11.704 3.336 9.944V0.991999ZM28.5184 7.664C29.5904 8.736 30.1264 10.064 30.1264 11.648C30.1264 13.232 29.5904 14.56 28.5184 15.632C27.3664 16.784 25.8064 17.36 23.8384 17.36C21.8704 17.36 20.3104 16.784 19.1584 15.632C18.0864 14.56 17.5504 13.232 17.5504 11.648C17.5504 10.064 18.0864 8.736 19.1584 7.664C20.3104 6.512 21.8704 5.936 23.8384 5.936C25.8064 5.936 27.3664 6.512 28.5184 7.664ZM25.7824 9.632C25.2704 9.12 24.6224 8.864 23.8384 8.864C23.0544 8.864 22.4064 9.12 21.8944 9.632C21.3664 10.16 21.1024 10.832 21.1024 11.648C21.1024 12.464 21.3664 13.136 21.8944 13.664C22.4064 14.176 23.0624 14.432 23.8624 14.432C24.6304 14.432 25.2704 14.176 25.7824 13.664C26.3104 13.136 26.5744 12.464 26.5744 11.648C26.5744 10.832 26.3104 10.16 25.7824 9.632ZM32.2815 17V6.296H39.4815V9.128H35.7375V17H32.2815ZM51.2762 7.664C52.3482 8.736 52.8842 10.064 52.8842 11.648C52.8842 13.232 52.3482 14.56 51.2762 15.632C50.1242 16.784 48.5642 17.36 46.5962 17.36C44.6282 17.36 43.0682 16.784 41.9162 15.632C40.8442 14.56 40.3082 13.232 40.3082 11.648C40.3082 10.064 40.8442 8.736 41.9162 7.664C43.0682 6.512 44.6282 5.936 46.5962 5.936C48.5642 5.936 50.1242 6.512 51.2762 7.664ZM48.5402 9.632C48.0282 9.12 47.3802 8.864 46.5962 8.864C45.8122 8.864 45.1642 9.12 44.6522 9.632C44.1242 10.16 43.8602 10.832 43.8602 11.648C43.8602 12.464 44.1242 13.136 44.6522 13.664C45.1642 14.176 45.8202 14.432 46.6202 14.432C47.3882 14.432 48.0282 14.176 48.5402 13.664C49.0682 13.136 49.3322 12.464 49.3322 11.648C49.3322 10.832 49.0682 10.16 48.5402 9.632ZM63.1033 9.08H60.2233V17H56.7673V9.08H53.8873V6.296H63.1033V9.08ZM64.6487 6.296H68.1047V12.416L72.6647 6.296H75.8807V17H72.4247V10.784L67.8647 17H64.6487V6.296ZM78.5706 17V6.296H89.2026V17H85.7466V9.08H82.0266V17H78.5706Z" fill="#108DE7"/>
</svg>
