<svg width="16" height="16" viewBox="0 0 16 16" fill="none" xmlns="http://www.w3.org/2000/svg">
<path d="M8.028 15.5307C2.81933 15.5307 0 12.28 0 8.08337C0 3.59867 3.17467 0 8.85067 0C12.9933 0 16 2.692 16 6.40067C16 12.2087 9.11333 13.742 9.45867 10.4287C8.98533 11.1674 8.22267 11.998 6.75667 11.998C5.07933 11.998 4.03667 10.77 4.03667 8.79337C4.03667 5.83067 5.984 3.32733 8.28933 3.32733C9.39533 3.32733 10.156 3.91133 10.474 4.808L10.6293 4.26164C10.7205 3.94112 11.0132 3.72 11.3464 3.72C11.8439 3.72 12.2077 4.19847 12.0764 4.67831C11.6265 6.32295 10.7947 9.4047 10.7947 9.4047C10.3627 11.182 11.6947 11.2134 12.876 10.2694C15.0953 8.54937 15.21 4.05133 12.2107 2.17533C8.99667 0.248 1.68067 1.44067 1.68067 7.9707C1.68067 11.7114 4.314 14.2247 8.23333 14.2247C10.1759 14.2247 11.4808 13.7788 12.5453 13.2294C12.8612 13.0664 13.2527 13.1512 13.4553 13.4434C13.684 13.7733 13.581 14.2305 13.2201 14.4061C12.07 14.9657 10.4056 15.5307 8.028 15.5307ZM6.46533 5.994C5.98867 6.88737 5.68067 8.0447 5.68067 8.94337C5.68067 11.35 8.02867 11.3654 9.182 9.1027C9.65667 8.17337 9.96267 6.9887 9.96267 6.08333C9.96267 4.13867 7.63267 3.794 6.46533 5.994Z" fill="#161522"/>
</svg>
