<svg width="29" height="29" viewBox="0 0 29 29" fill="none" xmlns="http://www.w3.org/2000/svg">
<path d="M14.6741 13.6101L14.6741 0.754132C14.6744 0.460137 14.4356 0.221376 14.1416 0.221627C13.8474 0.221626 13.6091 0.459886 13.6091 0.754132L13.6091 13.6101L0.75319 13.6101C0.458944 13.6101 0.220685 13.8483 0.220685 14.1426C0.220434 14.4366 0.459195 14.6753 0.75319 14.6751L13.6091 14.6751L13.6091 27.531C13.6089 27.825 13.8476 28.0638 14.1416 28.0635C14.2888 28.0635 14.4218 28.0038 14.5182 27.9074C14.6146 27.811 14.6744 27.6779 14.6744 27.5308L14.6744 14.6748L27.5303 14.6748C27.6775 14.6748 27.8105 14.6151 27.9069 14.5187C28.0033 14.4223 28.0631 14.2892 28.0631 14.1421C28.0633 13.8481 27.8246 13.6093 27.5306 13.6096L14.6741 13.6101Z" fill="#108DE7"/>
</svg>
